<?xml version="1.0" encoding="UTF-8"?>
<!-- Generator: Adobe Illustrator 12.0.1, SVG Export Plug-In . SVG Version: 6.00 Build 51448)  -->
<!DOCTYPE svg PUBLIC "-//W3C//DTD SVG 1.1//EN" "http://www.w3.org/Graphics/SVG/1.1/DTD/svg11.dtd" [
	<!ENTITY ns_svg "http://www.w3.org/2000/svg">
	<!ENTITY ns_xlink "http://www.w3.org/1999/xlink">
	<!ENTITY st0 "opacity:0.6;fill:none;stroke:#000000;stroke-width:0.5;enable-background:new    ;">
	<!ENTITY st1 "fill:none;">
]>
<svg version="1.1" id="Layer_1" xmlns="http://www.w3.org/2000/svg" xmlns:xlink="http://www.w3.org/1999/xlink" width="400" height="290" viewBox="0 0 400 290" style="overflow:visible;enable-background:new 0 0 400 290;" xml:space="preserve">
<polyline style="opacity:0.6;fill:none;stroke:#000000;stroke-width:0.5;enable-background:new    ;" points="9.36,244.954 12.86,243.671 16.36,242.366 19.86,241.016 23.36,239.616 26.86,238.184   30.36,236.746 33.86,235.33 37.36,233.955 40.86,232.626 44.36,231.332 47.86,230.059 51.36,228.786 54.86,227.504 58.36,226.204   61.86,224.884 65.36,223.549 68.86,222.202 72.36,220.852 75.86,219.502 79.36,218.155 82.86,216.812 86.36,215.475 89.86,214.137   93.36,212.794 96.86,211.439 100.36,210.07 103.86,208.684 107.36,207.275 110.86,205.859 114.36,204.443 117.86,203.05   121.36,201.691 124.86,200.377 128.36,199.104 131.86,197.854 135.36,196.598 138.86,195.309 142.36,193.97 145.86,192.586   149.36,191.18 "/>
<polyline style="opacity:0.6;fill:none;stroke:#000000;stroke-width:0.5;enable-background:new    ;" points="15.423,245.791 18.923,244.486 22.423,243.132 25.923,241.723 29.423,240.277 32.923,238.837   36.423,237.432 39.923,236.08 43.423,234.781 46.923,233.52 50.423,232.264 53.923,230.994 57.423,229.693 60.923,228.355   64.423,226.989 67.923,225.602 71.423,224.203 74.923,222.809 78.423,221.421 81.923,220.05 85.423,218.695 88.923,217.361   92.423,216.044 95.923,214.741 99.423,213.448 102.923,212.157 106.423,210.855 109.923,209.536 113.423,208.184 116.923,206.796   120.423,205.377 123.923,203.941 127.423,202.518 130.923,201.127 134.423,199.789 137.923,198.506 141.423,197.26 144.923,196.016   148.423,194.734 151.923,193.402 155.423,192.018 "/>
<polyline style="opacity:0.6;fill:none;stroke:#000000;stroke-width:0.5;enable-background:new    ;" points="21.485,246.605 24.985,245.253 28.485,243.837 31.984,242.386 35.484,240.941 38.984,239.543   42.484,238.213 45.984,236.939 49.484,235.698 52.984,234.448 56.484,233.159 59.984,231.816 63.484,230.42 66.984,228.984   70.484,227.529 73.984,226.073 77.484,224.631 80.984,223.208 84.484,221.809 87.984,220.432 91.484,219.076 94.984,217.743   98.484,216.432 101.984,215.143 105.484,213.876 108.984,212.63 112.484,211.396 115.984,210.163 119.484,208.91 122.984,207.618   126.484,206.271 129.984,204.873 133.484,203.436 136.984,201.986 140.484,200.57 143.984,199.213 147.484,197.922 150.984,196.678   154.484,195.439 157.984,194.167 161.484,192.833 "/>
<polyline style="opacity:0.6;fill:none;stroke:#000000;stroke-width:0.5;enable-background:new    ;" points="27.547,247.377 31.047,245.963 34.547,244.507 38.047,243.057 41.547,241.662 45.047,240.345   48.547,239.092 52.047,237.861 55.547,236.605 59.047,235.286 62.547,233.889 66.047,232.426 69.547,230.925 73.047,229.418   76.547,227.93 80.047,226.475 83.547,225.057 87.047,223.667 90.547,222.301 94.047,220.947 97.547,219.602 101.047,218.259   104.547,216.923 108.047,215.602 111.547,214.301 115.047,213.031 118.547,211.797 122.047,210.598 125.547,209.415   129.047,208.229 132.547,207.002 136.047,205.711 139.547,204.342 143.047,202.909 146.547,201.45 150.047,200.014 153.547,198.643   157.047,197.35 160.547,196.109 164.047,194.878 167.547,193.604 "/>
<polyline style="opacity:0.6;fill:none;stroke:#000000;stroke-width:0.5;enable-background:new    ;" points="33.609,248.1 37.109,246.641 40.609,245.184 44.109,243.782 47.609,242.47 51.109,241.229   54.609,240.008 58.109,238.743 61.609,237.393 65.109,235.941 68.609,234.42 72.109,232.871 75.609,231.342 79.109,229.864   82.609,228.451 86.109,227.094 89.609,225.773 93.109,224.475 96.609,223.173 100.109,221.859 103.609,220.525 107.109,219.171   110.609,217.796 114.109,216.408 117.609,215.02 121.109,213.648 124.609,212.318 128.109,211.044 131.609,209.832 135.109,208.673   138.609,207.533 142.109,206.366 145.609,205.127 149.109,203.79 152.609,202.365 156.109,200.898 159.609,199.45 163.109,198.074   166.609,196.785 170.109,195.555 173.609,194.324 "/>
<polyline style="opacity:0.6;fill:none;stroke:#000000;stroke-width:0.5;enable-background:new    ;" points="39.672,248.786 43.172,247.318 46.672,245.905 50.172,244.586 53.672,243.35 57.172,242.136   60.672,240.869 64.172,239.494 67.672,238.003 71.172,236.436 74.672,234.859 78.172,233.337 81.672,231.907 85.172,230.575   88.672,229.316 92.172,228.1 95.672,226.886 99.172,225.654 102.672,224.393 106.172,223.098 109.672,221.77 113.172,220.408   116.672,219.016 120.172,217.588 123.672,216.131 127.172,214.655 130.672,213.186 134.172,211.754 137.672,210.396   141.172,209.139 144.672,207.973 148.172,206.859 151.672,205.739 155.172,204.541 158.672,203.229 162.172,201.807 165.672,200.33   169.172,198.878 172.672,197.509 176.172,196.232 179.672,195.014 "/>
<polyline style="opacity:0.6;fill:none;stroke:#000000;stroke-width:0.5;enable-background:new    ;" points="45.733,249.469 49.233,248.033 52.733,246.693 56.233,245.453 59.733,244.248 63.233,242.99   66.733,241.607 70.233,240.09 73.733,238.49 77.233,236.896 80.733,235.396 84.233,234.03 87.733,232.792 91.233,231.634   94.733,230.496 98.233,229.329 101.733,228.107 105.233,226.831 108.733,225.514 112.233,224.173 115.733,222.828 119.233,221.484   122.733,220.135 126.233,218.766 129.733,217.354 133.233,215.886 136.733,214.364 140.233,212.812 143.733,211.282   147.233,209.832 150.733,208.509 154.233,207.32 157.733,206.227 161.233,205.137 164.733,203.966 168.233,202.659 171.733,201.229   175.233,199.745 178.733,198.298 182.233,196.948 185.733,195.695 "/>
<polyline style="opacity:0.6;fill:none;stroke:#000000;stroke-width:0.5;enable-background:new    ;" points="51.796,250.174 55.296,248.803 58.796,247.543 62.296,246.345 65.796,245.105 69.296,243.734   72.796,242.211 76.296,240.588 79.796,238.98 83.296,237.495 86.796,236.186 90.296,235.027 93.796,233.943 97.296,232.839   100.796,231.641 104.296,230.322 107.796,228.902 111.296,227.426 114.796,225.943 118.296,224.498 121.796,223.116   125.296,221.809 128.796,220.564 132.296,219.359 135.796,218.146 139.296,216.879 142.796,215.508 146.296,214.018   149.796,212.436 153.296,210.83 156.796,209.298 160.296,207.92 163.796,206.716 167.296,205.635 170.796,204.568 174.296,203.405   177.796,202.086 181.296,200.637 184.796,199.146 188.296,197.718 191.796,196.4 "/>
<polyline style="opacity:0.6;fill:none;stroke:#000000;stroke-width:0.5;enable-background:new    ;" points="57.857,250.92 61.357,249.625 64.857,248.422 68.357,247.209 71.857,245.874 75.357,244.365   78.857,242.73 82.357,241.102 85.857,239.611 89.357,238.333 92.857,237.234 96.357,236.195 99.857,235.08 103.357,233.783   106.857,232.279 110.357,230.614 113.857,228.872 117.357,227.139 120.857,225.482 124.357,223.939 127.857,222.527   131.357,221.251 134.857,220.105 138.357,219.073 141.857,218.117 145.357,217.171 148.857,216.146 152.357,214.962 155.857,213.57   159.357,211.998 162.857,210.348 166.357,208.758 169.857,207.348 173.357,206.146 176.857,205.089 180.357,204.034   183.857,202.854 187.357,201.501 190.857,200.025 194.357,198.54 197.857,197.146 "/>
<polyline style="opacity:0.6;fill:none;stroke:#000000;stroke-width:0.5;enable-background:new    ;" points="63.92,251.71 67.42,250.482 70.92,249.292 74.42,248.01 77.92,246.545 81.42,244.918 84.92,243.259   88.42,241.736 91.92,240.454 95.42,239.385 98.92,238.38 102.42,237.243 105.92,235.832 109.42,234.116 112.92,232.178   116.42,230.16 119.92,228.198 123.42,226.375 126.92,224.714 130.42,223.197 133.92,221.8 137.42,220.509 140.92,219.336   144.42,218.309 147.92,217.443 151.42,216.717 154.92,216.046 158.42,215.295 161.92,214.322 165.42,213.045 168.92,211.493   172.42,209.811 175.92,208.189 179.42,206.783 182.92,205.617 186.42,204.587 189.92,203.525 193.42,202.302 196.92,200.896   200.42,199.396 203.92,197.938 "/>
<polyline style="opacity:0.6;fill:none;stroke:#000000;stroke-width:0.5;enable-background:new    ;" points="69.982,252.537 73.482,251.35 76.982,250.124 80.482,248.732 83.982,247.145 87.482,245.462   90.982,243.878 94.482,242.547 97.982,241.475 101.482,240.5 104.982,239.372 108.482,237.886 111.982,235.993 115.482,233.82   118.982,231.594 122.482,229.521 125.982,227.723 129.482,226.182 132.982,224.814 136.482,223.514 139.982,222.193   143.482,220.825 146.982,219.438 150.482,218.115 153.982,216.967 157.482,216.079 160.982,215.461 164.482,215 167.982,214.482   171.482,213.688 174.982,212.484 178.482,210.925 181.982,209.211 185.482,207.594 188.982,206.236 192.482,205.131   195.982,204.124 199.482,203.023 202.982,201.729 206.482,200.264 209.982,198.764 "/>
<polyline style="opacity:0.6;fill:none;stroke:#000000;stroke-width:0.5;enable-background:new    ;" points="76.045,253.384 79.545,252.199 83.045,250.9 86.545,249.391 90.045,247.715 93.545,246.061   97.045,244.633 100.545,243.51 104.045,242.559 107.545,241.484 111.045,240.006 114.545,238.021 118.045,235.68 121.545,233.305   125.045,231.229 128.545,229.62 132.045,228.45 135.545,227.533 139.045,226.65 142.545,225.639 146.045,224.412 149.545,222.949   153.045,221.271 156.545,219.467 160.045,217.695 163.545,216.177 167.045,215.095 170.545,214.484 174.045,214.169   177.545,213.822 181.045,213.119 184.545,211.908 188.045,210.294 191.545,208.559 195.045,206.991 198.545,205.729   202.045,204.695 205.545,203.682 209.045,202.504 212.545,201.114 216.045,199.609 "/>
<polyline style="opacity:0.6;fill:none;stroke:#000000;stroke-width:0.5;enable-background:new    ;" points="82.106,254.232 85.606,253.02 89.106,251.625 92.606,250.01 96.106,248.307 99.606,246.751   103.106,245.516 106.606,244.547 110.106,243.562 113.606,242.193 117.106,240.234 120.606,237.799 124.106,235.295   127.606,233.202 131.106,231.812 134.606,231.08 138.106,230.688 141.606,230.253 145.106,229.535 148.606,228.505 152.106,227.248   155.606,225.816 159.106,224.158 162.606,222.188 166.106,219.934 169.606,217.637 173.106,215.68 176.606,214.381 180.106,213.785   183.606,213.602 187.106,213.348 190.606,212.618 194.106,211.298 197.606,209.594 201.105,207.873 204.605,206.421   208.105,205.287 211.605,204.302 215.105,203.229 218.605,201.934 222.105,200.458 "/>
<polyline style="opacity:0.6;fill:none;stroke:#000000;stroke-width:0.5;enable-background:new    ;" points="88.169,255.07 91.669,253.803 95.169,252.311 98.669,250.623 102.169,248.949 105.669,247.539   109.169,246.479 112.669,245.562 116.169,244.386 119.669,242.598 123.169,240.184 126.669,237.546 130.169,235.322   133.669,233.996 137.169,233.58 140.669,233.586 144.169,233.314 147.669,232.289 151.169,230.543 154.669,228.561 158.169,226.919   161.669,225.872 165.169,225.165 168.669,224.223 172.169,222.561 175.669,220.143 179.169,217.447 182.669,215.175   186.169,213.812 189.669,213.348 193.169,213.295 196.669,213.021 200.169,212.121 203.669,210.607 207.169,208.836   210.669,207.209 214.169,205.93 217.669,204.915 221.169,203.913 224.669,202.718 228.169,201.297 "/>
<polyline style="opacity:0.6;fill:none;stroke:#000000;stroke-width:0.5;enable-background:new    ;" points="94.23,255.891 97.73,254.557 101.23,252.977 104.73,251.255 108.23,249.656 111.73,248.4   115.23,247.46 118.73,246.482 122.23,245.003 125.73,242.78 129.23,240.075 132.73,237.589 136.23,236.053 139.73,235.7   143.23,235.969 146.73,235.71 150.23,233.834 153.73,230.025 157.23,225.068 160.73,220.527 164.23,217.909 167.73,217.839   171.23,219.691 174.73,221.959 178.23,223.079 181.73,222.268 185.23,219.837 188.73,216.88 192.23,214.543 195.73,213.391   199.23,213.188 202.73,213.205 206.23,212.738 209.73,211.53 213.23,209.818 216.73,208.07 220.23,206.637 223.73,205.547   227.23,204.579 230.73,203.471 234.23,202.117 "/>
<polyline style="opacity:0.6;fill:none;stroke:#000000;stroke-width:0.5;enable-background:new    ;" points="100.293,256.691 103.793,255.288 107.293,253.641 110.793,251.921 114.293,250.419 117.793,249.305   121.293,248.414 124.793,247.286 128.293,245.458 131.793,242.883 135.293,240.125 138.793,238.104 142.293,237.441   145.793,237.827 149.293,237.831 152.793,235.49 156.293,229.414 159.793,219.82 163.293,208.828 166.793,199.7 170.293,195.37   173.793,197.012 177.293,203.451 180.793,211.755 184.293,218.659 187.793,222.047 191.293,221.699 194.793,219.006   198.293,215.932 201.793,213.904 205.293,213.238 208.793,213.309 212.293,213.193 215.793,212.333 219.293,210.771   222.793,208.973 226.293,207.398 229.793,206.213 233.293,205.244 236.793,204.202 240.293,202.918 "/>
<polyline style="opacity:0.6;fill:none;stroke:#000000;stroke-width:0.5;enable-background:new    ;" points="106.355,257.477 109.855,256.011 113.355,254.316 116.855,252.622 120.355,251.221 123.855,250.211   127.355,249.312 130.855,247.986 134.355,245.836 137.855,243.042 141.355,240.443 144.855,239.053 148.355,239.17 151.855,239.676   155.355,238.074 158.855,231.534 162.355,218.525 165.855,200.18 169.355,180.459 172.855,164.865 176.355,158.146 179.855,162.177   183.355,175.082 186.855,192.113 190.355,207.771 193.855,218.091 197.355,221.941 200.855,220.854 204.355,217.66 207.855,214.854   211.355,213.559 214.855,213.466 218.355,213.57 221.855,213.034 225.355,211.672 228.855,209.881 232.355,208.201 235.855,206.914   239.355,205.921 242.855,204.926 246.355,203.702 "/>
<polyline style="opacity:0.6;fill:none;stroke:#000000;stroke-width:0.5;enable-background:new    ;" points="112.418,258.251 115.918,256.734 119.418,255.016 122.918,253.354 126.418,252.04 129.918,251.1   133.418,250.156 136.918,248.631 140.418,246.225 143.918,243.339 147.418,241.025 150.918,240.256 154.418,240.855   157.918,240.771 161.418,236.387 164.918,224.062 168.418,202.3 171.918,173.382 175.418,143.394 178.918,120.303 182.418,110.834   185.918,117.613 189.418,138.016 192.918,165.314 196.418,191.545 199.918,210.618 203.418,220.254 206.918,221.95 210.418,219.346   213.918,216.059 217.418,214.139 220.918,213.764 224.418,213.959 227.918,213.678 231.418,212.516 234.918,210.77 238.418,209.021   241.918,207.646 245.418,206.619 248.918,205.65 252.418,204.479 "/>
<polyline style="opacity:0.6;fill:none;stroke:#000000;stroke-width:0.5;enable-background:new    ;" points="118.479,259.021 121.979,257.47 125.479,255.736 128.979,254.107 132.479,252.859 135.979,251.959   139.479,250.958 142.979,249.27 146.479,246.688 149.979,243.798 153.479,241.78 156.979,241.493 160.479,242.259 163.979,241.146   167.479,233.552 170.979,215.189 174.479,184.7 177.979,145.514 181.479,105.703 184.979,75.505 188.479,63.44 191.979,72.816   195.479,100.325 198.979,137.447 202.479,173.945 205.979,201.746 209.479,217.42 212.979,222.324 216.479,220.749 219.979,217.295   223.479,214.893 226.979,214.223 230.479,214.423 233.979,214.314 237.479,213.316 240.979,211.628 244.479,209.841 247.979,208.4   251.479,207.34 254.979,206.385 258.479,205.247 "/>
<polyline style="opacity:0.6;fill:none;stroke:#000000;stroke-width:0.5;enable-background:new    ;" points="124.542,259.791 128.042,258.22 131.542,256.48 135.042,254.875 138.542,253.667 142.042,252.784   145.542,251.739 149.042,249.943 152.542,247.266 156.042,244.402 159.542,242.6 163.042,242.604 166.542,243.35 170.042,241.283   173.542,231.13 177.042,208.182 180.542,171.227 184.042,124.543 187.542,77.625 191.042,42.312 194.542,28.383 198.042,39.623   201.542,72.248 205.042,116.478 208.542,160.473 212.042,194.738 215.542,214.997 219.042,222.463 222.542,221.839 226.042,218.402   229.542,215.712 233.042,214.826 236.542,215.001 240.042,214.99 243.542,214.098 247.042,212.454 250.542,210.648 254.042,209.167   257.542,208.084 261.042,207.134 264.542,206.018 "/>
<path style="opacity:0.6;fill:none;stroke:#000000;stroke-width:0.5;enable-background:new    ;" d="M130.604,260.564l3.5-1.578l3.5-1.741l3.5-1.597l3.5-1.193l3.5-0.879l3.5-1.061l3.5-1.832l3.5-2.709l3.5-2.85  l3.5-1.727l3.5,0.099l3.5,0.715l3.5-2.448l3.5-11.131l3.5-24.66l3.5-39.343l3.5-49.435l3.5-49.513l3.5-37.178  c0,0,1.38-13.805,3.5-14.608c1.859-0.704,3.5,11.918,3.5,11.918l3.5,34.49l3.5,46.826l3.5,46.745l3.5,36.654l3.5,21.971l3.5,8.441  l3.5-0.239l3.5-3.403l3.5-2.787l3.5-0.963l3.5,0.161l3.5,0.021l3.5-0.857l3.5-1.627l3.5-1.811l3.5-1.494l3.5-1.092l3.5-0.949  l3.5-1.109"/>
<polyline style="opacity:0.6;fill:none;stroke:#000000;stroke-width:0.5;enable-background:new    ;" points="136.666,261.344 140.166,259.771 143.666,258.032 147.166,256.428 150.666,255.22 154.166,254.337   157.666,253.292 161.166,251.496 164.666,248.816 168.166,245.954 171.666,244.15 175.166,244.154 178.666,244.9 182.166,242.836   185.666,232.682 189.166,209.734 192.666,172.779 196.166,126.096 199.666,79.178 203.166,43.864 206.666,29.936 210.166,41.176   213.666,73.8 217.166,118.029 220.666,162.023 224.166,196.291 227.666,216.55 231.166,224.016 234.666,223.393 238.166,219.956   241.666,217.264 245.166,216.379 248.666,216.555 252.166,216.543 255.666,215.648 259.166,214.006 262.666,212.2 266.166,210.72   269.666,209.636 273.166,208.688 276.666,207.568 "/>
<polyline style="opacity:0.6;fill:none;stroke:#000000;stroke-width:0.5;enable-background:new    ;" points="142.729,262.126 146.229,260.574 149.729,258.841 153.229,257.213 156.729,255.965 160.229,255.062   163.729,254.062 167.229,252.373 170.729,249.792 174.229,246.902 177.729,244.885 181.229,244.6 184.729,245.363 188.229,244.25   191.729,236.656 195.229,218.294 198.729,187.805 202.229,148.618 205.729,108.808 209.229,78.609 212.729,66.545 216.229,75.921   219.729,103.43 223.229,140.552 226.729,177.05 230.229,204.852 233.729,220.523 237.229,225.43 240.729,223.854 244.229,220.4   247.729,217.997 251.229,217.327 254.729,217.527 258.229,217.42 261.729,216.421 265.229,214.732 268.729,212.945 272.229,211.505   275.729,210.443 279.229,209.489 282.729,208.352 "/>
<polyline style="opacity:0.6;fill:none;stroke:#000000;stroke-width:0.5;enable-background:new    ;" points="148.791,262.908 152.291,261.393 155.791,259.673 159.291,258.012 162.791,256.697 166.291,255.757   169.791,254.812 173.291,253.288 176.791,250.881 180.291,247.996 183.791,245.684 187.291,244.913 190.791,245.514   194.291,245.428 197.791,241.044 201.291,228.719 204.791,206.957 208.291,178.039 211.791,148.05 215.291,124.959 218.791,115.491   222.291,122.271 225.791,142.673 229.291,169.973 232.791,196.202 236.291,215.275 239.791,224.911 243.291,226.607   246.791,224.003 250.291,220.715 253.791,218.795 257.291,218.421 260.791,218.616 264.291,218.335 267.791,217.172   271.291,215.427 274.791,213.68 278.291,212.305 281.791,211.275 285.291,210.309 288.791,209.134 "/>
<polyline style="opacity:0.6;fill:none;stroke:#000000;stroke-width:0.5;enable-background:new    ;" points="154.853,263.686 158.353,262.22 161.853,260.527 165.353,258.831 168.853,257.43 172.353,256.42   175.853,255.521 179.353,254.195 182.853,252.045 186.353,249.251 189.853,246.652 193.353,245.262 196.853,245.379   200.353,245.885 203.854,244.284 207.354,237.744 210.854,224.734 214.354,206.389 217.854,186.668 221.354,171.075   224.854,164.357 228.354,168.386 231.854,181.291 235.354,198.322 238.854,213.98 242.354,224.3 245.854,228.15 249.354,227.064   252.854,223.869 256.354,221.062 259.854,219.768 263.354,219.676 266.854,219.78 270.354,219.243 273.854,217.881 277.354,216.09   280.854,214.411 284.354,213.123 287.854,212.131 291.354,211.135 294.854,209.912 "/>
<polyline style="opacity:0.6;fill:none;stroke:#000000;stroke-width:0.5;enable-background:new    ;" points="160.915,264.453 164.415,263.05 167.915,261.402 171.415,259.684 174.915,258.182 178.415,257.064   181.915,256.176 185.415,255.048 188.915,253.22 192.415,250.645 195.915,247.887 199.415,245.864 202.915,245.203 206.415,245.588   209.915,245.593 213.415,243.252 216.915,237.176 220.415,227.583 223.915,216.59 227.415,207.462 230.915,203.132 234.415,204.771   237.915,211.212 241.415,219.518 244.915,226.421 248.415,229.809 251.915,229.46 255.415,226.768 258.915,223.693 262.415,221.666   265.915,221 269.415,221.068 272.915,220.955 276.415,220.095 279.915,218.534 283.415,216.734 286.915,215.161 290.415,213.975   293.915,213.005 297.415,211.964 300.914,210.68 "/>
<polyline style="opacity:0.6;fill:none;stroke:#000000;stroke-width:0.5;enable-background:new    ;" points="166.977,265.205 170.477,263.869 173.977,262.289 177.477,260.568 180.977,258.97 184.477,257.716   187.977,256.773 191.477,255.798 194.977,254.316 198.477,252.095 201.977,249.391 205.477,246.902 208.977,245.367   212.477,245.016 215.977,245.283 219.477,245.023 222.977,243.146 226.477,239.339 229.977,234.384 233.477,229.841   236.977,227.225 240.477,227.152 243.977,229.006 247.477,231.271 250.977,232.393 254.477,231.581 257.977,229.15 261.477,226.193   264.977,223.857 268.477,222.704 271.977,222.503 275.477,222.52 278.977,222.053 282.477,220.845 285.977,219.133 289.477,217.385   292.977,215.95 296.477,214.861 299.977,213.893 303.477,212.784 306.977,211.432 "/>
<polyline style="opacity:0.6;fill:none;stroke:#000000;stroke-width:0.5;enable-background:new    ;" points="173.039,265.938 176.539,264.669 180.039,263.176 183.539,261.489 187.039,259.814 190.539,258.405   194.039,257.344 197.539,256.428 201.039,255.252 204.539,253.464 208.039,251.049 211.539,248.412 215.039,246.188   218.539,244.861 222.039,244.445 225.539,244.452 229.039,244.182 232.539,243.155 236.039,241.409 239.539,239.427   243.039,237.785 246.539,236.738 250.039,236.031 253.539,235.089 257.039,233.426 260.539,231.009 264.039,228.312   267.539,226.041 271.039,224.68 274.539,224.214 278.039,224.162 281.539,223.889 285.039,222.986 288.539,221.475 292.039,219.702   295.539,218.075 299.039,216.796 302.539,215.781 306.039,214.779 309.539,213.584 313.039,212.163 "/>
<polyline style="opacity:0.6;fill:none;stroke:#000000;stroke-width:0.5;enable-background:new    ;" points="179.102,266.65 182.602,265.438 186.102,264.043 189.602,262.428 193.102,260.725 196.602,259.17   200.102,257.934 203.602,256.966 207.102,255.98 210.602,254.611 214.102,252.652 217.602,250.218 221.102,247.714 224.602,245.621   228.102,244.23 231.602,243.498 235.102,243.105 238.602,242.672 242.102,241.954 245.602,240.924 249.102,239.666 252.602,238.234   256.102,236.576 259.602,234.605 263.102,232.352 266.602,230.055 270.102,228.1 273.602,226.8 277.102,226.204 280.602,226.02   284.102,225.766 287.602,225.036 291.102,223.716 294.602,222.014 298.102,220.291 301.602,218.839 305.102,217.705 308.602,216.72   312.102,215.646 315.602,214.354 319.102,212.877 "/>
<polyline style="opacity:0.6;fill:none;stroke:#000000;stroke-width:0.5;enable-background:new    ;" points="185.164,267.354 188.664,266.17 192.164,264.872 195.664,263.361 199.164,261.686 202.664,260.031   206.164,258.604 209.664,257.48 213.164,256.529 216.664,255.455 220.164,253.977 223.664,251.991 227.164,249.648 230.664,247.275   234.164,245.198 237.664,243.591 241.164,242.421 244.664,241.504 248.164,240.621 251.664,239.609 255.164,238.383 258.664,236.92   262.164,235.243 265.664,233.438 269.164,231.666 272.664,230.146 276.164,229.064 279.664,228.455 283.164,228.141   286.664,227.793 290.164,227.09 293.664,225.88 297.164,224.266 300.664,222.527 304.164,220.962 307.664,219.7 311.164,218.666   314.664,217.652 318.164,216.475 321.664,215.085 325.164,213.58 "/>
<polyline style="opacity:0.6;fill:none;stroke:#000000;stroke-width:0.5;enable-background:new    ;" points="191.226,268.061 194.726,266.872 198.226,265.646 201.727,264.256 205.227,262.666 208.727,260.984   212.227,259.4 215.727,258.07 219.227,256.998 222.727,256.023 226.227,254.895 229.727,253.408 233.227,251.518 236.727,249.344   240.227,247.117 243.727,245.046 247.227,243.244 250.727,241.705 254.227,240.339 257.727,239.037 261.227,237.717 264.727,236.35   268.227,234.962 271.727,233.639 275.227,232.489 278.727,231.604 282.227,230.984 285.727,230.523 289.227,230.007 292.727,229.21   296.227,228.008 299.727,226.448 303.227,224.732 306.727,223.117 310.227,221.76 313.727,220.654 317.227,219.646 320.727,218.548   324.227,217.25 327.727,215.786 331.227,214.286 "/>
<polyline style="opacity:0.6;fill:none;stroke:#000000;stroke-width:0.5;enable-background:new    ;" points="197.288,268.786 200.788,267.559 204.288,266.368 207.788,265.085 211.288,263.62 214.788,261.993   218.288,260.335 221.788,258.812 225.288,257.529 228.788,256.46 232.288,255.455 235.788,254.318 239.288,252.907 242.788,251.191   246.288,249.254 249.788,247.234 253.288,245.273 256.788,243.45 260.288,241.789 263.788,240.271 267.288,238.875 270.788,237.584   274.288,236.412 277.788,235.385 281.288,234.52 284.788,233.792 288.288,233.121 291.788,232.371 295.288,231.398 298.788,230.12   302.287,228.568 305.787,226.885 309.287,225.266 312.787,223.857 316.287,222.691 319.787,221.663 323.287,220.602   326.787,219.377 330.287,217.971 333.787,216.473 337.287,215.012 "/>
<polyline style="opacity:0.6;fill:none;stroke:#000000;stroke-width:0.5;enable-background:new    ;" points="203.35,269.548 206.85,268.253 210.35,267.05 213.85,265.837 217.35,264.502 220.85,262.992   224.35,261.359 227.85,259.729 231.35,258.239 234.85,256.961 238.35,255.861 241.85,254.824 245.35,253.708 248.85,252.411   252.35,250.907 255.85,249.242 259.35,247.5 262.85,245.768 266.35,244.109 269.85,242.566 273.35,241.156 276.85,239.879   280.35,238.732 283.85,237.701 287.35,236.745 290.85,235.799 294.35,234.775 297.85,233.59 301.35,232.198 304.85,230.626   308.35,228.975 311.85,227.386 315.35,225.975 318.85,224.775 322.35,223.717 325.85,222.662 329.35,221.482 332.85,220.129   336.35,218.652 339.85,217.168 343.35,215.773 "/>
<polyline style="opacity:0.6;fill:none;stroke:#000000;stroke-width:0.5;enable-background:new    ;" points="209.412,270.354 212.912,268.982 216.412,267.725 219.912,266.523 223.412,265.285 226.912,263.916   230.412,262.391 233.912,260.77 237.412,259.16 240.912,257.676 244.412,256.365 247.912,255.208 251.412,254.125 254.912,253.02   258.412,251.82 261.912,250.502 265.412,249.082 268.912,247.605 272.412,246.123 275.912,244.678 279.412,243.297 282.912,241.989   286.412,240.746 289.912,239.54 293.412,238.328 296.912,237.059 300.412,235.688 303.912,234.198 307.412,232.615 310.912,231.01   314.412,229.479 317.912,228.1 321.412,226.896 324.912,225.814 328.412,224.749 331.912,223.585 335.412,222.266 338.912,220.816   342.412,219.327 345.912,217.896 349.412,216.58 "/>
<polyline style="opacity:0.6;fill:none;stroke:#000000;stroke-width:0.5;enable-background:new    ;" points="215.475,271.201 218.975,269.766 222.475,268.427 225.975,267.186 229.475,265.98 232.975,264.723   236.475,263.34 239.975,261.822 243.475,260.223 246.975,258.63 250.475,257.129 253.975,255.764 257.475,254.523 260.975,253.366   264.475,252.229 267.975,251.062 271.475,249.841 274.975,248.562 278.475,247.245 281.975,245.905 285.475,244.561   288.975,243.217 292.475,241.867 295.975,240.497 299.475,239.086 302.975,237.618 306.475,236.098 309.975,234.545   313.475,233.016 316.975,231.564 320.475,230.242 323.975,229.055 327.475,227.958 330.975,226.869 334.475,225.698   337.975,224.393 341.475,222.962 344.975,221.479 348.475,220.03 351.975,218.682 355.475,217.428 "/>
<polyline style="opacity:0.6;fill:none;stroke:#000000;stroke-width:0.5;enable-background:new    ;" points="221.537,272.071 225.037,270.604 228.537,269.189 232.037,267.87 235.537,266.634 239.037,265.421   242.537,264.154 246.037,262.779 249.537,261.288 253.037,259.721 256.537,258.145 260.037,256.622 263.537,255.191   267.037,253.859 270.537,252.602 274.037,251.383 277.537,250.17 281.037,248.938 284.537,247.677 288.037,246.382 291.537,245.055   295.037,243.693 298.537,242.3 302.037,240.873 305.537,239.415 309.037,237.939 312.537,236.47 316.037,235.039 319.537,233.684   323.037,232.424 326.537,231.257 330.037,230.145 333.537,229.023 337.037,227.826 340.537,226.514 344.037,225.09 347.537,223.614   351.037,222.162 354.537,220.793 358.037,219.52 361.537,218.297 "/>
<polyline style="opacity:0.6;fill:none;stroke:#000000;stroke-width:0.5;enable-background:new    ;" points="227.6,272.936 231.1,271.479 234.6,270.02 238.1,268.619 241.6,267.307 245.1,266.064   248.6,264.845 252.1,263.581 255.6,262.229 259.1,260.779 262.6,259.257 266.1,257.708 269.6,256.179 273.1,254.702 276.6,253.288   280.1,251.932 283.6,250.611 287.1,249.311 290.6,248.011 294.1,246.697 297.6,245.363 301.1,244.008 304.6,242.633 308.1,241.245   311.6,239.855 315.1,238.486 318.6,237.155 322.1,235.881 325.6,234.67 329.1,233.51 332.6,232.37 336.1,231.204 339.6,229.965   343.1,228.628 346.6,227.203 350.1,225.734 353.6,224.287 357.1,222.911 360.6,221.623 364.1,220.393 367.6,219.162 "/>
<polyline style="opacity:0.6;fill:none;stroke:#000000;stroke-width:0.5;enable-background:new    ;" points="233.661,273.768 237.161,272.354 240.661,270.896 244.161,269.446 247.661,268.051 251.161,266.734   254.661,265.48 258.161,264.252 261.661,262.996 265.161,261.676 268.661,260.277 272.161,258.814 275.661,257.314 279.161,255.807   282.661,254.318 286.161,252.864 289.661,251.445 293.161,250.057 296.661,248.689 300.16,247.337 303.66,245.99 307.16,244.646   310.66,243.312 314.16,241.99 317.66,240.689 321.16,239.42 324.66,238.188 328.16,236.986 331.66,235.805 335.16,234.617   338.66,233.393 342.16,232.102 345.66,230.73 349.16,229.299 352.66,227.84 356.16,226.402 359.66,225.032 363.16,223.738   366.66,222.499 370.16,221.268 373.66,219.993 "/>
<polyline style="opacity:0.6;fill:none;stroke:#000000;stroke-width:0.5;enable-background:new    ;" points="239.723,274.549 243.223,273.193 246.723,271.779 250.223,270.328 253.723,268.883 257.223,267.484   260.723,266.154 264.223,264.883 267.723,263.641 271.223,262.391 274.723,261.102 278.223,259.758 281.723,258.361   285.223,256.926 288.723,255.471 292.223,254.016 295.723,252.572 299.223,251.148 302.723,249.75 306.223,248.373 309.723,247.02   313.223,245.686 316.723,244.373 320.223,243.084 323.723,241.816 327.223,240.572 330.723,239.339 334.223,238.105   337.723,236.852 341.223,235.561 344.723,234.215 348.223,232.814 351.723,231.376 355.223,229.93 358.723,228.514 362.223,227.154   365.723,225.863 369.223,224.62 372.723,223.383 376.223,222.109 379.723,220.773 "/>
<polyline style="opacity:0.6;fill:none;stroke:#000000;stroke-width:0.5;enable-background:new    ;" points="245.785,275.285 249.285,273.98 252.785,272.626 256.285,271.216 259.785,269.771 263.285,268.331   266.785,266.925 270.285,265.573 273.785,264.275 277.285,263.014 280.785,261.758 284.285,260.488 287.785,259.188   291.285,257.852 294.785,256.482 298.285,255.095 301.785,253.697 305.285,252.302 308.785,250.915 312.285,249.544   315.785,248.189 319.285,246.855 322.785,245.538 326.285,244.234 329.785,242.941 333.285,241.65 336.785,240.352 340.285,239.03   343.785,237.678 347.285,236.29 350.785,234.871 354.285,233.438 357.785,232.012 361.285,230.621 364.785,229.283 368.285,228   371.785,226.753 375.285,225.509 378.785,224.229 382.285,222.896 385.785,221.512 "/>
<polyline style="opacity:0.6;fill:none;stroke:#000000;stroke-width:0.5;enable-background:new    ;" points="251.848,276 255.348,274.717 258.848,273.412 262.348,272.062 265.848,270.663 269.348,269.23   272.848,267.792 276.348,266.377 279.848,265.002 283.348,263.672 286.848,262.378 290.348,261.104 293.848,259.833   297.348,258.551 300.848,257.25 304.348,255.932 307.848,254.595 311.348,253.249 314.848,251.898 318.348,250.548 321.848,249.201   325.348,247.859 328.848,246.521 332.348,245.184 335.848,243.84 339.348,242.486 342.848,241.118 346.348,239.729 349.848,238.323   353.348,236.906 356.848,235.491 360.348,234.098 363.848,232.736 367.348,231.424 370.848,230.15 374.348,228.898 377.848,227.645   381.348,226.354 384.848,225.016 388.348,223.632 391.848,222.227 "/>
<polyline style="opacity:0.6;fill:none;stroke:#000000;stroke-width:0.5;enable-background:new    ;" points="9.36,244.954 15.423,245.791 21.485,246.605 27.547,247.377 33.609,248.1 39.672,248.786   45.733,249.469 51.796,250.174 57.857,250.92 63.92,251.71 69.982,252.537 76.045,253.384 82.106,254.232 88.169,255.07   94.23,255.891 100.293,256.691 106.355,257.477 112.418,258.251 118.479,259.021 124.542,259.791 130.604,260.564 136.666,261.344   142.729,262.126 148.791,262.908 154.853,263.686 160.915,264.453 166.977,265.205 173.039,265.938 179.102,266.65 185.164,267.354   191.226,268.061 197.288,268.786 203.35,269.548 209.412,270.354 215.475,271.201 221.537,272.071 227.6,272.936 233.661,273.768   239.723,274.549 245.785,275.285 251.848,276 "/>
<polyline style="opacity:0.6;fill:none;stroke:#000000;stroke-width:0.5;enable-background:new    ;" points="12.86,243.671 18.923,244.486 24.985,245.253 31.047,245.963 37.109,246.641 43.172,247.318   49.233,248.033 55.296,248.803 61.357,249.625 67.42,250.482 73.482,251.35 79.545,252.199 85.606,253.02 91.669,253.803   97.73,254.557 103.793,255.288 109.855,256.011 115.918,256.734 121.979,257.47 128.042,258.22 134.104,258.986 140.166,259.771   146.229,260.574 152.291,261.393 158.353,262.22 164.415,263.05 170.477,263.869 176.539,264.669 182.602,265.438 188.664,266.17   194.726,266.872 200.788,267.559 206.85,268.253 212.912,268.982 218.975,269.766 225.037,270.604 231.1,271.479 237.161,272.354   243.223,273.193 249.285,273.98 255.348,274.717 "/>
<polyline style="opacity:0.6;fill:none;stroke:#000000;stroke-width:0.5;enable-background:new    ;" points="16.36,242.366 22.423,243.132 28.485,243.837 34.547,244.507 40.609,245.184 46.672,245.905   52.733,246.693 58.796,247.543 64.857,248.422 70.92,249.292 76.982,250.124 83.045,250.9 89.106,251.625 95.169,252.311   101.23,252.977 107.293,253.641 113.355,254.316 119.418,255.016 125.479,255.736 131.542,256.48 137.604,257.245 143.666,258.032   149.729,258.841 155.791,259.673 161.853,260.527 167.915,261.402 173.977,262.289 180.039,263.176 186.102,264.043   192.164,264.872 198.226,265.646 204.288,266.368 210.35,267.05 216.412,267.725 222.475,268.427 228.537,269.189 234.6,270.02   240.661,270.896 246.723,271.779 252.785,272.626 258.848,273.412 "/>
<polyline style="opacity:0.6;fill:none;stroke:#000000;stroke-width:0.5;enable-background:new    ;" points="19.86,241.016 25.923,241.723 31.984,242.386 38.047,243.057 44.109,243.782 50.172,244.586   56.233,245.453 62.296,246.345 68.357,247.209 74.42,248.01 80.482,248.732 86.545,249.391 92.606,250.01 98.669,250.623   104.73,251.255 110.793,251.921 116.855,252.622 122.918,253.354 128.979,254.107 135.042,254.875 141.104,255.648 147.166,256.428   153.229,257.213 159.291,258.012 165.353,258.831 171.415,259.684 177.477,260.568 183.539,261.489 189.602,262.428   195.664,263.361 201.727,264.256 207.788,265.085 213.85,265.837 219.912,266.523 225.975,267.186 232.037,267.87 238.1,268.619   244.161,269.446 250.223,270.328 256.285,271.216 262.348,272.062 "/>
<polyline style="opacity:0.6;fill:none;stroke:#000000;stroke-width:0.5;enable-background:new    ;" points="23.36,239.616 29.423,240.277 35.484,240.941 41.547,241.662 47.609,242.47 53.672,243.35   59.733,244.248 65.796,245.105 71.857,245.874 77.92,246.545 83.982,247.145 90.045,247.715 96.106,248.307 102.169,248.949   108.23,249.656 114.293,250.419 120.355,251.221 126.418,252.04 132.479,252.859 138.542,253.667 144.604,254.455 150.666,255.22   156.729,255.965 162.791,256.697 168.853,257.43 174.915,258.182 180.977,258.97 187.039,259.814 193.102,260.725 199.164,261.686   205.227,262.666 211.288,263.62 217.35,264.502 223.412,265.285 229.475,265.98 235.537,266.634 241.6,267.307 247.661,268.051   253.723,268.883 259.785,269.771 265.848,270.663 "/>
<polyline style="opacity:0.6;fill:none;stroke:#000000;stroke-width:0.5;enable-background:new    ;" points="26.86,238.184 32.923,238.837 38.984,239.543 45.047,240.345 51.109,241.229 57.172,242.136   63.233,242.99 69.296,243.734 75.357,244.365 81.42,244.918 87.482,245.462 93.545,246.061 99.606,246.751 105.669,247.539   111.73,248.4 117.793,249.305 123.855,250.211 129.918,251.1 135.979,251.959 142.042,252.784 148.104,253.576 154.166,254.337   160.229,255.062 166.291,255.757 172.353,256.42 178.415,257.064 184.477,257.716 190.539,258.405 196.602,259.17 202.664,260.031   208.727,260.984 214.788,261.993 220.85,262.992 226.912,263.916 232.975,264.723 239.037,265.421 245.1,266.064 251.161,266.734   257.223,267.484 263.285,268.331 269.348,269.23 "/>
<polyline style="opacity:0.6;fill:none;stroke:#000000;stroke-width:0.5;enable-background:new    ;" points="30.36,236.746 36.423,237.432 42.484,238.213 48.547,239.092 54.609,240.008 60.672,240.869   66.733,241.607 72.796,242.211 78.857,242.73 84.92,243.259 90.982,243.878 97.045,244.633 103.106,245.516 109.169,246.479   115.23,247.46 121.293,248.414 127.355,249.312 133.418,250.156 139.479,250.958 145.542,251.739 151.604,252.516 157.666,253.292   163.729,254.062 169.791,254.812 175.853,255.521 181.915,256.176 187.977,256.773 194.039,257.344 200.102,257.934   206.164,258.604 212.227,259.4 218.288,260.335 224.35,261.359 230.412,262.391 236.475,263.34 242.537,264.154 248.6,264.845   254.661,265.48 260.723,266.154 266.785,266.925 272.848,267.792 "/>
<polyline style="opacity:0.6;fill:none;stroke:#000000;stroke-width:0.5;enable-background:new    ;" points="33.86,235.33 39.923,236.08 45.984,236.939 52.047,237.861 58.109,238.743 64.172,239.494   70.233,240.09 76.296,240.588 82.357,241.102 88.42,241.736 94.482,242.547 100.545,243.51 106.606,244.547 112.669,245.562   118.73,246.482 124.793,247.286 130.855,247.986 136.918,248.631 142.979,249.27 149.042,249.943 155.104,250.684 161.166,251.496   167.229,252.373 173.291,253.288 179.353,254.195 185.415,255.048 191.477,255.798 197.539,256.428 203.602,256.966 209.664,257.48   215.727,258.07 221.788,258.812 227.85,259.729 233.912,260.77 239.975,261.822 246.037,262.779 252.1,263.581 258.161,264.252   264.223,264.883 270.285,265.573 276.348,266.377 "/>
<polyline style="opacity:0.6;fill:none;stroke:#000000;stroke-width:0.5;enable-background:new    ;" points="37.36,233.955 43.423,234.781 49.484,235.698 55.547,236.605 61.609,237.393 67.672,238.003   73.733,238.49 79.796,238.98 85.857,239.611 91.92,240.454 97.982,241.475 104.045,242.559 110.106,243.562 116.169,244.386   122.23,245.003 128.293,245.458 134.355,245.836 140.418,246.225 146.479,246.688 152.542,247.266 158.604,247.975 164.666,248.816   170.729,249.792 176.791,250.881 182.853,252.045 188.915,253.22 194.977,254.316 201.039,255.252 207.102,255.98 213.164,256.529   219.227,256.998 225.288,257.529 231.35,258.239 237.412,259.16 243.475,260.223 249.537,261.288 255.6,262.229 261.661,262.996   267.723,263.641 273.785,264.275 279.848,265.002 "/>
<polyline style="opacity:0.6;fill:none;stroke:#000000;stroke-width:0.5;enable-background:new    ;" points="40.86,232.626 46.923,233.52 52.984,234.448 59.047,235.286 65.109,235.941 71.172,236.436   77.233,236.896 83.296,237.495 89.357,238.333 95.42,239.385 101.482,240.5 107.545,241.484 113.606,242.193 119.669,242.598   125.73,242.78 131.793,242.883 137.855,243.042 143.918,243.339 149.979,243.798 156.042,244.402 162.104,245.125 168.166,245.954   174.229,246.902 180.291,247.996 186.353,249.251 192.415,250.645 198.477,252.095 204.539,253.464 210.602,254.611   216.664,255.455 222.727,256.023 228.788,256.46 234.85,256.961 240.912,257.676 246.975,258.63 253.037,259.721 259.1,260.779   265.161,261.676 271.223,262.391 277.285,263.014 283.348,263.672 "/>
<polyline style="opacity:0.6;fill:none;stroke:#000000;stroke-width:0.5;enable-background:new    ;" points="44.36,231.332 50.423,232.264 56.484,233.159 62.547,233.889 68.609,234.42 74.672,234.859   80.733,235.396 86.796,236.186 92.857,237.234 98.92,238.38 104.982,239.372 111.045,240.006 117.106,240.234 123.169,240.184   129.23,240.075 135.293,240.125 141.355,240.443 147.418,241.025 153.479,241.78 159.542,242.6 165.604,243.398 171.666,244.15   177.729,244.885 183.791,245.684 189.853,246.652 195.915,247.887 201.977,249.391 208.039,251.049 214.102,252.652   220.164,253.977 226.227,254.895 232.288,255.455 238.35,255.861 244.412,256.365 250.475,257.129 256.537,258.145 262.6,259.257   268.661,260.277 274.723,261.102 280.785,261.758 286.848,262.378 "/>
<polyline style="opacity:0.6;fill:none;stroke:#000000;stroke-width:0.5;enable-background:new    ;" points="47.86,230.059 53.923,230.994 59.984,231.816 66.047,232.426 72.109,232.871 78.172,233.337   84.233,234.03 90.296,235.027 96.357,236.195 102.42,237.243 108.482,237.886 114.545,238.021 120.606,237.799 126.669,237.546   132.73,237.589 138.793,238.104 144.855,239.053 150.918,240.256 156.979,241.493 163.042,242.604 169.104,243.497 175.166,244.154   181.229,244.6 187.291,244.913 193.353,245.262 199.415,245.864 205.477,246.902 211.539,248.412 217.602,250.218 223.664,251.991   229.727,253.408 235.788,254.318 241.85,254.824 247.912,255.208 253.975,255.764 260.037,256.622 266.1,257.708 272.161,258.814   278.223,259.758 284.285,260.488 290.348,261.104 "/>
<polyline style="opacity:0.6;fill:none;stroke:#000000;stroke-width:0.5;enable-background:new    ;" points="51.36,228.786 57.423,229.693 63.484,230.42 69.547,230.925 75.609,231.342 81.672,231.907   87.733,232.792 93.796,233.943 99.857,235.08 105.92,235.832 111.982,235.993 118.045,235.68 124.106,235.295 130.169,235.322   136.23,236.053 142.293,237.441 148.355,239.17 154.418,240.855 160.479,242.259 166.542,243.35 172.604,244.212 178.666,244.9   184.729,245.363 190.791,245.514 196.853,245.379 202.915,245.203 208.977,245.367 215.039,246.188 221.102,247.714   227.164,249.648 233.227,251.518 239.288,252.907 245.35,253.708 251.412,254.125 257.475,254.523 263.537,255.191 269.6,256.179   275.661,257.314 281.723,258.361 287.785,259.188 293.848,259.833 "/>
<polyline style="opacity:0.6;fill:none;stroke:#000000;stroke-width:0.5;enable-background:new    ;" points="54.86,227.504 60.923,228.355 66.984,228.984 73.047,229.418 79.109,229.864 85.172,230.575   91.233,231.634 97.296,232.839 103.357,233.783 109.42,234.116 115.482,233.82 121.545,233.305 127.606,233.202 133.669,233.996   139.73,235.7 145.793,237.827 151.855,239.676 157.918,240.771 163.979,241.146 170.042,241.283 176.104,241.764 182.166,242.836   188.229,244.25 194.291,245.428 200.353,245.885 206.415,245.588 212.477,245.016 218.539,244.861 224.602,245.621 230.664,247.275   236.727,249.344 242.788,251.191 248.85,252.411 254.912,253.02 260.975,253.366 267.037,253.859 273.1,254.702 279.161,255.807   285.223,256.926 291.285,257.852 297.348,258.551 "/>
<polyline style="opacity:0.6;fill:none;stroke:#000000;stroke-width:0.5;enable-background:new    ;" points="58.36,226.204 64.423,226.989 70.484,227.529 76.547,227.93 82.609,228.451 88.672,229.316   94.733,230.496 100.796,231.641 106.857,232.279 112.92,232.178 118.982,231.594 125.045,231.229 131.106,231.812 137.169,233.58   143.23,235.969 149.293,237.831 155.355,238.074 161.418,236.387 167.479,233.552 173.542,231.13 179.604,230.633 185.666,232.682   191.729,236.656 197.791,241.044 203.854,244.284 209.915,245.593 215.977,245.283 222.039,244.445 228.102,244.23 234.164,245.198   240.227,247.117 246.288,249.254 252.35,250.907 258.412,251.82 264.475,252.229 270.537,252.602 276.6,253.288 282.661,254.318   288.723,255.471 294.785,256.482 300.848,257.25 "/>
<polyline style="opacity:0.6;fill:none;stroke:#000000;stroke-width:0.5;enable-background:new    ;" points="61.86,224.884 67.923,225.602 73.984,226.073 80.047,226.475 86.109,227.094 92.172,228.1   98.233,229.329 104.296,230.322 110.357,230.614 116.42,230.16 122.482,229.521 128.545,229.62 134.606,231.08 140.669,233.586   146.73,235.71 152.793,235.49 158.855,231.534 164.918,224.062 170.979,215.189 177.042,208.182 183.104,205.973 189.166,209.734   195.229,218.294 201.291,228.719 207.354,237.744 213.415,243.252 219.477,245.023 225.539,244.452 231.602,243.498   237.664,243.591 243.727,245.046 249.788,247.234 255.85,249.242 261.912,250.502 267.975,251.062 274.037,251.383 280.1,251.932   286.161,252.864 292.223,254.016 298.285,255.095 304.348,255.932 "/>
<polyline style="opacity:0.6;fill:none;stroke:#000000;stroke-width:0.5;enable-background:new    ;" points="65.36,223.549 71.423,224.203 77.484,224.631 83.547,225.057 89.609,225.773 95.672,226.886   101.733,228.107 107.796,228.902 113.857,228.872 119.92,228.198 125.982,227.723 132.045,228.45 138.106,230.688 144.169,233.314   150.23,233.834 156.293,229.414 162.355,218.525 168.418,202.3 174.479,184.7 180.542,171.227 186.604,166.63 192.666,172.779   198.729,187.805 204.791,206.957 210.854,224.734 216.915,237.176 222.977,243.146 229.039,244.182 235.102,243.105   241.164,242.421 247.227,243.244 253.288,245.273 259.35,247.5 265.412,249.082 271.475,249.841 277.537,250.17 283.6,250.611   289.661,251.445 295.723,252.572 301.785,253.697 307.848,254.595 "/>
<polyline style="opacity:0.6;fill:none;stroke:#000000;stroke-width:0.5;enable-background:new    ;" points="68.86,222.202 74.923,222.809 80.984,223.208 87.047,223.667 93.109,224.475 99.172,225.654   105.233,226.831 111.296,227.426 117.357,227.139 123.42,226.375 129.482,226.182 135.545,227.533 141.606,230.253 147.669,232.289   153.73,230.025 159.793,219.82 165.855,200.18 171.918,173.382 177.979,145.514 184.042,124.543 190.104,117.195 196.166,126.096   202.229,148.618 208.291,178.039 214.354,206.389 220.415,227.583 226.477,239.339 232.539,243.155 238.602,242.672   244.664,241.504 250.727,241.705 256.788,243.45 262.85,245.768 268.912,247.605 274.975,248.562 281.037,248.938 287.1,249.311   293.161,250.057 299.223,251.148 305.285,252.302 311.348,253.249 "/>
<polyline style="opacity:0.6;fill:none;stroke:#000000;stroke-width:0.5;enable-background:new    ;" points="72.36,220.852 78.423,221.421 84.484,221.809 90.547,222.301 96.609,223.173 102.672,224.393   108.733,225.514 114.796,225.943 120.857,225.482 126.92,224.714 132.982,224.814 139.045,226.65 145.106,229.535 151.169,230.543   157.23,225.068 163.293,208.828 169.355,180.459 175.418,143.394 181.479,105.703 187.542,77.625 193.604,67.682 199.666,79.178   205.729,108.808 211.791,148.05 217.854,186.668 223.915,216.59 229.977,234.384 236.039,241.409 242.102,241.954 248.164,240.621   254.227,240.339 260.288,241.789 266.35,244.109 272.412,246.123 278.475,247.245 284.537,247.677 290.6,248.011 296.661,248.689   302.723,249.75 308.785,250.915 314.848,251.898 "/>
<polyline style="opacity:0.6;fill:none;stroke:#000000;stroke-width:0.5;enable-background:new    ;" points="75.86,219.502 81.923,220.05 87.984,220.432 94.047,220.947 100.109,221.859 106.172,223.098   112.233,224.173 118.296,224.498 124.357,223.939 130.42,223.197 136.482,223.514 142.545,225.639 148.606,228.505 154.669,228.561   160.73,220.527 166.793,199.7 172.855,164.865 178.918,120.303 184.979,75.505 191.042,42.312 197.104,30.504 203.166,43.864   209.229,78.609 215.291,124.959 221.354,171.075 227.415,207.462 233.477,229.841 239.539,239.427 245.602,240.924 251.664,239.609   257.727,239.037 263.788,240.271 269.85,242.566 275.912,244.678 281.975,245.905 288.037,246.382 294.1,246.697 300.16,247.337   306.223,248.373 312.285,249.544 318.348,250.548 "/>
<path style="opacity:0.6;fill:none;stroke:#000000;stroke-width:0.5;enable-background:new    ;" d="M79.36,218.155l6.063,0.54l6.061,0.381l6.063,0.525l6.062,0.924l6.063,1.244l6.061,1.059l6.063,0.288  l6.061-0.589l6.063-0.728l6.062,0.394l6.063,2.219l6.061,2.836l6.063-0.329l6.061-9.01l6.063-22.539l6.062-37.224l6.063-47.312  l6.061-47.394l6.063-35.057c0,0,3.573-12.796,6.062-12.487c2.864,0.356,6.062,14.04,6.062,14.04l6.062,36.609l6.062,48.946  l6.062,48.866l6.062,38.774l6.062,24.093l6.062,10.561l6.062,1.881l6.062-1.283l6.062-0.666l6.062,1.158l6.062,2.281l6.062,2.141  l6.062,1.264l6.062,0.494l6.062,0.309l6.061,0.627l6.062,1.029l6.062,1.17l6.062,1.012"/>
<polyline style="opacity:0.6;fill:none;stroke:#000000;stroke-width:0.5;enable-background:new    ;" points="82.86,216.812 88.923,217.361 94.984,217.743 101.047,218.259 107.109,219.171 113.172,220.408   119.233,221.484 125.296,221.809 131.357,221.251 137.42,220.509 143.482,220.825 149.545,222.949 155.606,225.816 161.669,225.872   167.73,217.839 173.793,197.012 179.855,162.177 185.918,117.613 191.979,72.816 198.042,39.623 204.104,27.814 210.166,41.176   216.229,75.921 222.291,122.271 228.354,168.386 234.415,204.771 240.477,227.152 246.539,236.738 252.602,238.234 258.664,236.92   264.727,236.35 270.788,237.584 276.85,239.879 282.912,241.989 288.975,243.217 295.037,243.693 301.1,244.008 307.16,244.646   313.223,245.686 319.285,246.855 325.348,247.859 "/>
<polyline style="opacity:0.6;fill:none;stroke:#000000;stroke-width:0.5;enable-background:new    ;" points="86.36,215.475 92.423,216.044 98.484,216.432 104.547,216.923 110.609,217.796 116.672,219.016   122.733,220.135 128.796,220.564 134.857,220.105 140.92,219.336 146.982,219.438 153.045,221.271 159.106,224.158 165.169,225.165   171.23,219.691 177.293,203.451 183.355,175.082 189.418,138.016 195.479,100.325 201.542,72.248 207.604,62.304 213.666,73.8   219.729,103.43 225.791,142.673 231.854,181.291 237.915,211.212 243.977,229.006 250.039,236.031 256.102,236.576 262.164,235.243   268.227,234.962 274.288,236.412 280.35,238.732 286.412,240.746 292.475,241.867 298.537,242.3 304.6,242.633 310.66,243.312   316.723,244.373 322.785,245.538 328.848,246.521 "/>
<polyline style="opacity:0.6;fill:none;stroke:#000000;stroke-width:0.5;enable-background:new    ;" points="89.86,214.137 95.923,214.741 101.984,215.143 108.047,215.602 114.109,216.408 120.172,217.588   126.233,218.766 132.296,219.359 138.357,219.073 144.42,218.309 150.482,218.115 156.545,219.467 162.606,222.188 168.669,224.223   174.73,221.959 180.793,211.755 186.855,192.113 192.918,165.314 198.979,137.447 205.042,116.478 211.104,109.13 217.166,118.029   223.229,140.552 229.291,169.973 235.354,198.322 241.415,219.518 247.477,231.271 253.539,235.089 259.602,234.605   265.664,233.438 271.727,233.639 277.788,235.385 283.85,237.701 289.912,239.54 295.975,240.497 302.037,240.873 308.1,241.245   314.16,241.99 320.223,243.084 326.285,244.234 332.348,245.184 "/>
<polyline style="opacity:0.6;fill:none;stroke:#000000;stroke-width:0.5;enable-background:new    ;" points="93.36,212.794 99.423,213.448 105.484,213.876 111.547,214.301 117.609,215.02 123.672,216.131   129.733,217.354 135.796,218.146 141.857,218.117 147.92,217.443 153.982,216.967 160.045,217.695 166.106,219.934 172.169,222.561   178.23,223.079 184.293,218.659 190.355,207.771 196.418,191.545 202.479,173.945 208.542,160.473 214.604,155.875 220.666,162.023   226.729,177.05 232.791,196.202 238.854,213.98 244.915,226.421 250.977,232.393 257.039,233.426 263.102,232.352 269.164,231.666   275.227,232.489 281.288,234.52 287.35,236.745 293.412,238.328 299.475,239.086 305.537,239.415 311.6,239.855 317.66,240.689   323.723,241.816 329.785,242.941 335.848,243.84 "/>
<polyline style="opacity:0.6;fill:none;stroke:#000000;stroke-width:0.5;enable-background:new    ;" points="96.86,211.439 102.923,212.157 108.984,212.63 115.047,213.031 121.109,213.648 127.172,214.655   133.233,215.886 139.296,216.879 145.357,217.171 151.42,216.717 157.482,216.079 163.545,216.177 169.606,217.637 175.669,220.143   181.73,222.268 187.793,222.047 193.855,218.091 199.918,210.618 205.979,201.746 212.042,194.738 218.104,192.529 224.166,196.291   230.229,204.852 236.291,215.275 242.354,224.3 248.415,229.809 254.477,231.581 260.539,231.009 266.602,230.055 272.664,230.146   278.727,231.604 284.788,233.792 290.85,235.799 296.912,237.059 302.975,237.618 309.037,237.939 315.1,238.486 321.16,239.42   327.223,240.572 333.285,241.65 339.348,242.486 "/>
<polyline style="opacity:0.6;fill:none;stroke:#000000;stroke-width:0.5;enable-background:new    ;" points="100.36,210.07 106.423,210.855 112.484,211.396 118.547,211.797 124.609,212.318 130.672,213.186   136.733,214.364 142.796,215.508 148.857,216.146 154.92,216.046 160.982,215.461 167.045,215.095 173.106,215.68 179.169,217.447   185.23,219.837 191.293,221.699 197.355,221.941 203.418,220.254 209.479,217.42 215.542,214.997 221.604,214.5 227.666,216.55   233.729,220.523 239.791,224.911 245.854,228.15 251.915,229.46 257.977,229.15 264.039,228.312 270.102,228.1 276.164,229.064   282.227,230.984 288.288,233.121 294.35,234.775 300.412,235.688 306.475,236.098 312.537,236.47 318.6,237.155 324.66,238.188   330.723,239.339 336.785,240.352 342.848,241.118 "/>
<polyline style="opacity:0.6;fill:none;stroke:#000000;stroke-width:0.5;enable-background:new    ;" points="103.86,208.684 109.923,209.536 115.984,210.163 122.047,210.598 128.109,211.044 134.172,211.754   140.233,212.812 146.296,214.018 152.357,214.962 158.42,215.295 164.482,215 170.545,214.484 176.606,214.381 182.669,215.175   188.73,216.88 194.793,219.006 200.855,220.854 206.918,221.95 212.979,222.324 219.042,222.463 225.104,222.941 231.166,224.016   237.229,225.43 243.291,226.607 249.354,227.064 255.415,226.768 261.477,226.193 267.539,226.041 273.602,226.8 279.664,228.455   285.727,230.523 291.788,232.371 297.85,233.59 303.912,234.198 309.975,234.545 316.037,235.039 322.1,235.881 328.16,236.986   334.223,238.105 340.285,239.03 346.348,239.729 "/>
<polyline style="opacity:0.6;fill:none;stroke:#000000;stroke-width:0.5;enable-background:new    ;" points="107.36,207.275 113.423,208.184 119.484,208.91 125.547,209.415 131.609,209.832 137.672,210.396   143.733,211.282 149.796,212.436 155.857,213.57 161.92,214.322 167.982,214.482 174.045,214.169 180.106,213.785 186.169,213.812   192.23,214.543 198.293,215.932 204.355,217.66 210.418,219.346 216.479,220.749 222.542,221.839 228.604,222.702 234.666,223.393   240.729,223.854 246.791,224.003 252.854,223.869 258.915,223.693 264.977,223.857 271.039,224.68 277.102,226.204 283.164,228.141   289.227,230.007 295.288,231.398 301.35,232.198 307.412,232.615 313.475,233.016 319.537,233.684 325.6,234.67 331.66,235.805   337.723,236.852 343.785,237.678 349.848,238.323 "/>
<polyline style="opacity:0.6;fill:none;stroke:#000000;stroke-width:0.5;enable-background:new    ;" points="110.86,205.859 116.923,206.796 122.984,207.618 129.047,208.229 135.109,208.673 141.172,209.139   147.233,209.832 153.296,210.83 159.357,211.998 165.42,213.045 171.482,213.688 177.545,213.822 183.606,213.602 189.669,213.348   195.73,213.391 201.793,213.904 207.855,214.854 213.918,216.059 219.979,217.295 226.042,218.402 232.104,219.299 238.166,219.956   244.229,220.4 250.291,220.715 256.354,221.062 262.415,221.666 268.477,222.704 274.539,224.214 280.602,226.02 286.664,227.793   292.727,229.21 298.788,230.12 304.85,230.626 310.912,231.01 316.975,231.564 323.037,232.424 329.1,233.51 335.16,234.617   341.223,235.561 347.285,236.29 353.348,236.906 "/>
<polyline style="opacity:0.6;fill:none;stroke:#000000;stroke-width:0.5;enable-background:new    ;" points="114.36,204.443 120.423,205.377 126.484,206.271 132.547,207.002 138.609,207.533 144.672,207.973   150.733,208.509 156.796,209.298 162.857,210.348 168.92,211.493 174.982,212.484 181.045,213.119 187.106,213.348 193.169,213.295   199.23,213.188 205.293,213.238 211.355,213.559 217.418,214.139 223.479,214.893 229.542,215.712 235.604,216.512 241.666,217.264   247.729,217.997 253.791,218.795 259.854,219.768 265.915,221 271.977,222.503 278.039,224.162 284.102,225.766 290.164,227.09   296.227,228.008 302.287,228.568 308.35,228.975 314.412,229.479 320.475,230.242 326.537,231.257 332.6,232.37 338.66,233.393   344.723,234.215 350.785,234.871 356.848,235.491 "/>
<polyline style="opacity:0.6;fill:none;stroke:#000000;stroke-width:0.5;enable-background:new    ;" points="117.86,203.05 123.923,203.941 129.984,204.873 136.047,205.711 142.109,206.366 148.172,206.859   154.233,207.32 160.296,207.92 166.357,208.758 172.42,209.811 178.482,210.925 184.545,211.908 190.606,212.618 196.669,213.021   202.73,213.205 208.793,213.309 214.855,213.466 220.918,213.764 226.979,214.223 233.042,214.826 239.104,215.549 245.166,216.379   251.229,217.327 257.291,218.421 263.354,219.676 269.415,221.068 275.477,222.52 281.539,223.889 287.602,225.036 293.664,225.88   299.727,226.448 305.787,226.885 311.85,227.386 317.912,228.1 323.975,229.055 330.037,230.145 336.1,231.204 342.16,232.102   348.223,232.814 354.285,233.438 360.348,234.098 "/>
<polyline style="opacity:0.6;fill:none;stroke:#000000;stroke-width:0.5;enable-background:new    ;" points="121.36,201.691 127.423,202.518 133.484,203.436 139.547,204.342 145.609,205.127 151.672,205.739   157.733,206.227 163.796,206.716 169.857,207.348 175.92,208.189 181.982,209.211 188.045,210.294 194.106,211.298 200.169,212.121   206.23,212.738 212.293,213.193 218.355,213.57 224.418,213.959 230.479,214.423 236.542,215.001 242.604,215.71 248.666,216.555   254.729,217.527 260.791,218.616 266.854,219.78 272.915,220.955 278.977,222.053 285.039,222.986 291.102,223.716 297.164,224.266   303.227,224.732 309.287,225.266 315.35,225.975 321.412,226.896 327.475,227.958 333.537,229.023 339.6,229.965 345.66,230.73   351.723,231.376 357.785,232.012 363.848,232.736 "/>
<polyline style="opacity:0.6;fill:none;stroke:#000000;stroke-width:0.5;enable-background:new    ;" points="124.86,200.377 130.923,201.127 136.984,201.986 143.047,202.909 149.109,203.79 155.172,204.541   161.233,205.137 167.296,205.635 173.357,206.146 179.42,206.783 185.482,207.594 191.545,208.559 197.606,209.594 203.669,210.607   209.73,211.53 215.793,212.333 221.855,213.034 227.918,213.678 233.979,214.314 240.042,214.99 246.104,215.73 252.166,216.543   258.229,217.42 264.291,218.335 270.354,219.243 276.415,220.095 282.477,220.845 288.539,221.475 294.602,222.014 300.664,222.527   306.727,223.117 312.787,223.857 318.85,224.775 324.912,225.814 330.975,226.869 337.037,227.826 343.1,228.628 349.16,229.299   355.223,229.93 361.285,230.621 367.348,231.424 "/>
<polyline style="opacity:0.6;fill:none;stroke:#000000;stroke-width:0.5;enable-background:new    ;" points="128.36,199.104 134.423,199.789 140.484,200.57 146.547,201.45 152.609,202.365 158.672,203.229   164.733,203.966 170.796,204.568 176.857,205.089 182.92,205.617 188.982,206.236 195.045,206.991 201.105,207.873 207.169,208.836   213.23,209.818 219.293,210.771 225.355,211.672 231.418,212.516 237.479,213.316 243.542,214.098 249.604,214.873 255.666,215.648   261.729,216.421 267.791,217.172 273.854,217.881 279.915,218.534 285.977,219.133 292.039,219.702 298.102,220.291   304.164,220.962 310.227,221.76 316.287,222.691 322.35,223.717 328.412,224.749 334.475,225.698 340.537,226.514 346.6,227.203   352.66,227.84 358.723,228.514 364.785,229.283 370.848,230.15 "/>
<polyline style="opacity:0.6;fill:none;stroke:#000000;stroke-width:0.5;enable-background:new    ;" points="131.86,197.854 137.923,198.506 143.984,199.213 150.047,200.014 156.109,200.898 162.172,201.807   168.233,202.659 174.296,203.405 180.357,204.034 186.42,204.587 192.482,205.131 198.545,205.729 204.605,206.421 210.669,207.209   216.73,208.07 222.793,208.973 228.855,209.881 234.918,210.77 240.979,211.628 247.042,212.454 253.104,213.246 259.166,214.006   265.229,214.732 271.291,215.427 277.354,216.09 283.415,216.734 289.477,217.385 295.539,218.075 301.602,218.839 307.664,219.7   313.727,220.654 319.787,221.663 325.85,222.662 331.912,223.585 337.975,224.393 344.037,225.09 350.1,225.734 356.16,226.402   362.223,227.154 368.285,228 374.348,228.898 "/>
<polyline style="opacity:0.6;fill:none;stroke:#000000;stroke-width:0.5;enable-background:new    ;" points="135.36,196.598 141.423,197.26 147.484,197.922 153.547,198.643 159.609,199.45 165.672,200.33   171.733,201.229 177.796,202.086 183.857,202.854 189.92,203.525 195.982,204.124 202.045,204.695 208.105,205.287 214.169,205.93   220.23,206.637 226.293,207.398 232.355,208.201 238.418,209.021 244.479,209.841 250.542,210.648 256.604,211.436 262.666,212.2   268.729,212.945 274.791,213.68 280.854,214.411 286.915,215.161 292.977,215.95 299.039,216.796 305.102,217.705 311.164,218.666   317.227,219.646 323.287,220.602 329.35,221.482 335.412,222.266 341.475,222.962 347.537,223.614 353.6,224.287 359.66,225.032   365.723,225.863 371.785,226.753 377.848,227.645 "/>
<polyline style="opacity:0.6;fill:none;stroke:#000000;stroke-width:0.5;enable-background:new    ;" points="138.86,195.309 144.923,196.016 150.984,196.678 157.047,197.35 163.109,198.074 169.172,198.878   175.233,199.745 181.296,200.637 187.357,201.501 193.42,202.302 199.482,203.023 205.545,203.682 211.605,204.302 217.669,204.915   223.73,205.547 229.793,206.213 235.855,206.914 241.918,207.646 247.979,208.4 254.042,209.167 260.104,209.941 266.166,210.72   272.229,211.505 278.291,212.305 284.354,213.123 290.415,213.975 296.477,214.861 302.539,215.781 308.602,216.72 314.664,217.652   320.727,218.548 326.787,219.377 332.85,220.129 338.912,220.816 344.975,221.479 351.037,222.162 357.1,222.911 363.16,223.738   369.223,224.62 375.285,225.509 381.348,226.354 "/>
<polyline style="opacity:0.6;fill:none;stroke:#000000;stroke-width:0.5;enable-background:new    ;" points="142.36,193.97 148.423,194.734 154.484,195.439 160.547,196.109 166.609,196.785 172.672,197.509   178.733,198.298 184.796,199.146 190.857,200.025 196.92,200.896 202.982,201.729 209.045,202.504 215.105,203.229 221.169,203.913   227.23,204.579 233.293,205.244 239.355,205.921 245.418,206.619 251.479,207.34 257.542,208.084 263.604,208.85 269.666,209.636   275.729,210.443 281.791,211.275 287.854,212.131 293.915,213.005 299.977,213.893 306.039,214.779 312.102,215.646   318.164,216.475 324.227,217.25 330.287,217.971 336.35,218.652 342.412,219.327 348.475,220.03 354.537,220.793 360.6,221.623   366.66,222.499 372.723,223.383 378.785,224.229 384.848,225.016 "/>
<polyline style="opacity:0.6;fill:none;stroke:#000000;stroke-width:0.5;enable-background:new    ;" points="145.86,192.586 151.923,193.402 157.984,194.167 164.047,194.878 170.109,195.555 176.172,196.232   182.233,196.948 188.296,197.718 194.357,198.54 200.42,199.396 206.482,200.264 212.545,201.114 218.605,201.934 224.669,202.718   230.73,203.471 236.793,204.202 242.855,204.926 248.918,205.65 254.979,206.385 261.042,207.134 267.104,207.9 273.166,208.688   279.229,209.489 285.291,210.309 291.354,211.135 297.415,211.964 303.477,212.784 309.539,213.584 315.602,214.354   321.664,215.085 327.727,215.786 333.787,216.473 339.85,217.168 345.912,217.896 351.975,218.682 358.037,219.52 364.1,220.393   370.16,221.268 376.223,222.109 382.285,222.896 388.348,223.632 "/>
<polyline style="opacity:0.6;fill:none;stroke:#000000;stroke-width:0.5;enable-background:new    ;" points="149.36,191.18 155.423,192.018 161.484,192.833 167.547,193.604 173.609,194.324 179.672,195.014   185.733,195.695 191.796,196.4 197.857,197.146 203.92,197.938 209.982,198.764 216.045,199.609 222.105,200.458 228.169,201.297   234.23,202.117 240.293,202.918 246.355,203.702 252.418,204.479 258.479,205.247 264.542,206.018 270.604,206.791 276.666,207.568   282.729,208.352 288.791,209.134 294.854,209.912 300.914,210.68 306.977,211.432 313.039,212.163 319.102,212.877 325.164,213.58   331.227,214.286 337.287,215.012 343.35,215.773 349.412,216.58 355.475,217.428 361.537,218.297 367.6,219.162 373.66,219.993   379.723,220.773 385.785,221.512 391.848,222.227 "/>
<rect style="fill:none;" width="400" height="290"/>
</svg>