<?xml version="1.0" encoding="UTF-8"?>
<svg xmlns="http://www.w3.org/2000/svg" viewBox="0 0 415.96 361.76">
  <defs>
    <style>
      .cls-1 {
        fill: #a61d31;
      }

      .cls-2 {
        fill: none;
        stroke: #f9f6ec;
        stroke-linecap: round;
        stroke-linejoin: round;
        stroke-width: 13px;
      }
    </style>
  </defs>
  <g id="Layer_2" data-name="Layer 2">
    <rect class="cls-1" x=".02" width="415.94" height="361.59"/>
  </g>
  <g id="Layer_1" data-name="Layer 1">
    <g>
      <line class="cls-2" x1="206.53" y1="248.49" x2="206.53" y2="191.6"/>
      <g>
        <line class="cls-2" x1="207.94" y1="189.35" x2="250.14" y2="158.89"/>
        <line class="cls-2" x1="250.79" y1="156.78" x2="254.32" y2="82.23"/>
        <line class="cls-2" x1="238.24" y1="9.95" x2="254" y2="80.31"/>
        <line class="cls-2" x1="245.57" y1="41.41" x2="265.58" y2="16.96"/>
        <line class="cls-2" x1="321.49" y1="42.59" x2="257.52" y2="80.64"/>
        <line class="cls-2" x1="292.7" y1="59.41" x2="297.22" y2="28.68"/>
        <g>
          <line class="cls-2" x1="252.58" y1="158.06" x2="329.42" y2="144.35"/>
          <line class="cls-2" x1="406.63" y1="149.5" x2="331.46" y2="144.39"/>
          <line class="cls-2" x1="372.98" y1="146.95" x2="395.56" y2="124.62"/>
          <line class="cls-2" x1="360.69" y1="76.39" x2="330.13" y2="142.15"/>
          <line class="cls-2" x1="347.76" y1="104.9" x2="379" y2="96.34"/>
        </g>
      </g>
    </g>
    <g>
      <line class="cls-2" x1="205.19" y1="189.71" x2="162.99" y2="156.29"/>
      <line class="cls-2" x1="162.34" y1="154.18" x2="158.81" y2="79.63"/>
      <line class="cls-2" x1="174.9" y1="10.3" x2="159.13" y2="77.71"/>
      <line class="cls-2" x1="167.57" y1="38.81" x2="147.56" y2="17.31"/>
      <line class="cls-2" x1="91.65" y1="39.98" x2="155.61" y2="78.03"/>
      <line class="cls-2" x1="120.44" y1="56.8" x2="115.91" y2="26.07"/>
      <line class="cls-2" x1="160.55" y1="155.46" x2="83.71" y2="141.75"/>
      <line class="cls-2" x1="6.5" y1="149.85" x2="81.68" y2="141.78"/>
      <line class="cls-2" x1="40.15" y1="144.34" x2="17.57" y2="124.98"/>
      <line class="cls-2" x1="52.44" y1="73.78" x2="83.01" y2="139.55"/>
      <line class="cls-2" x1="65.38" y1="102.29" x2="34.13" y2="93.74"/>
    </g>
    <g>
      <line class="cls-2" x1="207.92" y1="116.73" x2="207.92" y2="173.62"/>
      <g>
        <line class="cls-2" x1="209.34" y1="175.86" x2="251.54" y2="206.33"/>
        <line class="cls-2" x1="252.19" y1="208.44" x2="255.72" y2="282.98"/>
        <line class="cls-2" x1="239.63" y1="355.26" x2="255.4" y2="284.91"/>
        <line class="cls-2" x1="246.96" y1="323.81" x2="266.97" y2="348.26"/>
        <line class="cls-2" x1="322.88" y1="322.63" x2="258.92" y2="284.58"/>
        <line class="cls-2" x1="294.09" y1="305.81" x2="298.62" y2="336.54"/>
        <g>
          <line class="cls-2" x1="253.98" y1="207.15" x2="330.82" y2="220.87"/>
          <line class="cls-2" x1="408.03" y1="215.72" x2="332.85" y2="220.83"/>
          <line class="cls-2" x1="374.38" y1="218.27" x2="396.96" y2="240.59"/>
          <line class="cls-2" x1="362.09" y1="288.83" x2="331.52" y2="223.07"/>
          <line class="cls-2" x1="349.15" y1="260.32" x2="380.4" y2="268.88"/>
        </g>
      </g>
    </g>
    <g>
      <line class="cls-2" x1="206.59" y1="175.51" x2="164.39" y2="208.93"/>
      <line class="cls-2" x1="163.74" y1="211.04" x2="160.21" y2="285.59"/>
      <line class="cls-2" x1="176.29" y1="354.91" x2="160.53" y2="287.51"/>
      <line class="cls-2" x1="168.96" y1="326.41" x2="148.95" y2="347.91"/>
      <line class="cls-2" x1="93.04" y1="325.23" x2="157.01" y2="287.18"/>
      <line class="cls-2" x1="121.83" y1="308.42" x2="117.31" y2="339.14"/>
      <line class="cls-2" x1="161.95" y1="209.76" x2="85.11" y2="223.47"/>
      <line class="cls-2" x1="7.9" y1="215.37" x2="83.07" y2="223.43"/>
      <line class="cls-2" x1="41.55" y1="220.88" x2="18.97" y2="240.24"/>
      <line class="cls-2" x1="53.84" y1="291.44" x2="84.4" y2="225.67"/>
      <line class="cls-2" x1="66.77" y1="262.93" x2="35.53" y2="271.48"/>
    </g>
  </g>
</svg>