<?xml version="1.0" encoding="utf-8"?>
<!-- Generator: Adobe Illustrator 26.0.3, SVG Export Plug-In . SVG Version: 6.00 Build 0)  -->
<svg version="1.1" id="Layer_1" xmlns="http://www.w3.org/2000/svg" xmlns:xlink="http://www.w3.org/1999/xlink" x="0px" y="0px"
	 viewBox="0 0 500 500" style="enable-background:new 0 0 500 500;" xml:space="preserve">
<style type="text/css">
	.st0{fill:#E6E7E8;stroke:#E6E7E8;stroke-miterlimit:10;}
	.st1{opacity:0.74;fill:#D1D3D4;stroke:#BCBEC0;stroke-miterlimit:10;}
	.st2{opacity:0.74;fill:#BCBEC0;stroke:#BCBEC0;stroke-miterlimit:10;}
	.st3{opacity:0.74;fill:#A7A9AC;stroke:#BCBEC0;stroke-miterlimit:10;}
	.st4{opacity:0.74;fill:#FFFFFF;stroke:#000000;stroke-width:0.25;stroke-miterlimit:10;}
	.st5{opacity:0.74;fill:#FFFFFF;stroke:#E6E7E8;stroke-miterlimit:10;}
	.st6{fill:none;stroke:#BCBEC0;stroke-miterlimit:10;}
</style>
<rect x="0.32" y="0.83" class="st0" width="500" height="500"/>
<rect x="112.41" y="152.3" class="st1" width="275.19" height="195.4"/>
<polygon class="st2" points="266.17,193.46 299.62,251.39 333.06,309.32 266.17,309.32 248.61,283.21 232.72,251.39 "/>
<polygon class="st3" points="210.79,214.58 244.23,272.52 277.68,330.45 210.79,330.45 143.89,330.45 177.34,272.52 "/>
<polygon class="st4" points="141.71,173.26 143.35,176.57 147.01,177.11 144.36,179.69 144.98,183.33 141.71,181.61 138.44,183.33 
	139.06,179.69 136.42,177.11 140.08,176.57 "/>
<polygon class="st4" points="169.48,160.81 170.75,163.4 173.61,163.81 171.55,165.83 172.03,168.68 169.48,167.33 166.92,168.68 
	167.41,165.83 165.34,163.81 168.2,163.4 "/>
<polygon class="st4" points="158.75,182.68 159.43,184.06 160.95,184.28 159.85,185.35 160.11,186.87 158.75,186.15 157.38,186.87 
	157.64,185.35 156.54,184.28 158.07,184.06 "/>
<polygon class="st4" points="189.53,168.17 191.17,171.49 194.83,172.02 192.18,174.6 192.8,178.25 189.53,176.53 186.26,178.25 
	186.88,174.6 184.23,172.02 187.89,171.49 "/>
<polygon class="st4" points="142.52,198.47 143.2,199.85 144.73,200.08 143.62,201.15 143.88,202.67 142.52,201.95 141.16,202.67 
	141.42,201.15 140.32,200.08 141.84,199.85 "/>
<polygon class="st4" points="147.77,160.35 148.45,161.73 149.98,161.95 148.88,163.03 149.14,164.54 147.77,163.83 146.41,164.54 
	146.67,163.03 145.57,161.95 147.09,161.73 "/>
<polygon class="st4" points="189.54,157.57 190.22,158.95 191.74,159.17 190.64,160.24 190.9,161.76 189.54,161.04 188.18,161.76 
	188.44,160.24 187.34,159.17 188.86,158.95 "/>
<polygon class="st4" points="283.21,180.7 286.91,180.84 289.12,177.88 290.13,181.44 293.63,182.63 290.55,184.68 290.5,188.38 
	287.6,186.09 284.06,187.19 285.35,183.72 "/>
<polygon class="st4" points="305.75,192.03 307.29,192.09 308.21,190.86 308.63,192.34 310.09,192.83 308.81,193.69 308.79,195.23 
	307.58,194.27 306.11,194.73 306.64,193.28 "/>
<polygon class="st4" points="274.77,169.21 276.31,169.27 277.23,168.03 277.65,169.52 279.1,170.01 277.82,170.87 277.8,172.41 
	276.59,171.45 275.12,171.91 275.66,170.46 "/>
<polygon class="st4" points="225.32,177.97 228.14,180.36 231.71,179.39 230.3,182.81 232.33,185.91 228.64,185.63 226.32,188.51 
	225.44,184.92 221.99,183.6 225.13,181.66 "/>
<polygon class="st4" points="236.09,200.78 237.26,201.78 238.75,201.37 238.16,202.8 239.01,204.09 237.47,203.97 236.51,205.17 
	236.14,203.67 234.7,203.13 236.01,202.32 "/>
<polygon class="st4" points="225.75,163.71 226.92,164.71 228.41,164.31 227.82,165.73 228.66,167.02 227.13,166.9 226.16,168.1 
	225.8,166.61 224.36,166.06 225.67,165.25 "/>
<polygon class="st4" points="355.21,162.98 356.85,166.3 360.51,166.83 357.86,169.41 358.49,173.05 355.21,171.33 351.94,173.05 
	352.57,169.41 349.92,166.83 353.58,166.3 "/>
<polygon class="st4" points="291.17,159.91 292.45,162.5 295.31,162.91 293.24,164.93 293.73,167.78 291.17,166.43 288.62,167.78 
	289.1,164.93 287.03,162.91 289.89,162.5 "/>
<polygon class="st4" points="313.45,159.91 314.73,162.5 317.59,162.91 315.52,164.93 316,167.78 313.45,166.43 310.89,167.78 
	311.38,164.93 309.31,162.91 312.17,162.5 "/>
<polygon class="st5" points="210.79,213.19 224.33,236.65 229.25,245.18 232.64,253.03 219.37,243.77 228.24,271.76 213.21,246.81 
	200.67,280.42 203.51,240.96 203.51,240.96 203.51,240.96 188.59,262.33 195,240.54 198.84,233.89 "/>
<polygon class="st5" points="266.17,193.46 279.71,216.92 284.64,225.45 288.02,233.29 274.75,224.04 283.62,252.03 266.17,221.96 
	266.17,260.69 260.47,227.08 244.32,249.59 254.77,221.96 244.32,233.29 250.38,220.81 254.22,214.16 "/>
<line class="st6" x1="112.41" y1="347.7" x2="0" y2="460.11"/>
<line class="st6" x1="388" y1="347.7" x2="500.41" y2="460.11"/>
<line class="st6" x1="388" y1="152.11" x2="500.41" y2="39.7"/>
<line class="st6" x1="112.41" y1="152.11" x2="0" y2="39.7"/>
</svg>
