<?xml version="1.0" encoding="utf-8"?>
<!-- Generator: Adobe Illustrator 26.0.3, SVG Export Plug-In . SVG Version: 6.00 Build 0)  -->
<svg version="1.1" id="Layer_1" xmlns="http://www.w3.org/2000/svg" xmlns:xlink="http://www.w3.org/1999/xlink" x="0px" y="0px"
	 viewBox="0 0 500 500" style="enable-background:new 0 0 500 500;" xml:space="preserve">
<style type="text/css">
	.st0{fill:#E6E7E8;stroke:#E6E7E8;stroke-miterlimit:10;}
	.st1{opacity:0.74;fill:#D1D3D4;stroke:#BCBEC0;stroke-miterlimit:10;}
	.st2{opacity:0.74;fill:#A7A9AC;stroke:#BCBEC0;stroke-miterlimit:10;}
	.st3{opacity:0.74;fill:#FFFFFF;stroke:#E6E7E8;stroke-width:0.25;stroke-miterlimit:10;}
	.st4{opacity:0.74;fill:#FFFFFF;stroke:#F1F2F2;stroke-width:0.25;stroke-miterlimit:10;}
	.st5{opacity:0.74;fill:#FFFFFF;stroke:#E6E7E8;stroke-miterlimit:10;}
	.st6{opacity:0.74;fill:#BCBEC0;stroke:#BCBEC0;stroke-miterlimit:10;}
</style>
<rect x="0.41" y="1.39" class="st0" width="500" height="500"/>
<rect x="114.1" y="152.53" class="st1" width="260" height="200"/>
<polygon class="st2" points="213.75,239.52 241.83,288.17 269.92,336.82 213.75,336.82 157.57,336.82 185.66,288.17 "/>
<polygon class="st3" points="137.96,171.31 139.33,174.1 142.41,174.54 140.18,176.71 140.71,179.77 137.96,178.33 135.21,179.77 
	135.74,176.71 133.51,174.54 136.58,174.1 "/>
<polygon class="st3" points="175.33,175.05 176.41,177.23 178.81,177.58 177.07,179.27 177.48,181.66 175.33,180.53 173.19,181.66 
	173.6,179.27 171.86,177.58 174.26,177.23 "/>
<polygon class="st3" points="142.41,215.09 142.98,216.25 144.26,216.44 143.33,217.34 143.55,218.62 142.41,218.01 141.26,218.62 
	141.48,217.34 140.56,216.44 141.83,216.25 "/>
<polygon class="st3" points="190.33,190.37 191.71,193.15 194.78,193.6 192.55,195.77 193.08,198.83 190.33,197.38 187.58,198.83 
	188.11,195.77 185.88,193.6 188.96,193.15 "/>
<polygon class="st3" points="152.7,191.08 153.27,192.24 154.55,192.42 153.62,193.32 153.84,194.6 152.7,194 151.55,194.6 
	151.77,193.32 150.85,192.42 152.13,192.24 "/>
<polygon class="st3" points="157.11,159.06 157.68,160.22 158.96,160.41 158.03,161.31 158.25,162.58 157.11,161.98 155.96,162.58 
	156.18,161.31 155.26,160.41 156.54,160.22 "/>
<polygon class="st4" points="194.03,172.02 194.6,173.18 195.88,173.37 194.96,174.27 195.18,175.54 194.03,174.94 192.89,175.54 
	193.11,174.27 192.18,173.37 193.46,173.18 "/>
<polygon class="st3" points="340.71,196.78 343.81,196.9 345.67,194.42 346.51,197.41 349.45,198.41 346.87,200.13 346.83,203.24 
	344.39,201.31 341.42,202.23 342.5,199.32 "/>
<polygon class="st3" points="289.78,185.66 291.07,185.71 291.84,184.68 292.19,185.92 293.42,186.34 292.34,187.06 292.32,188.35 
	291.31,187.55 290.07,187.93 290.52,186.72 "/>
<polygon class="st3" points="265.58,180.81 266.87,180.86 267.64,179.83 267.99,181.07 269.22,181.49 268.14,182.21 268.12,183.5 
	267.11,182.7 265.87,183.08 266.32,181.87 "/>
<polygon class="st3" points="222.23,173.85 224.59,175.86 227.59,175.05 226.41,177.92 228.11,180.52 225.02,180.29 223.07,182.71 
	222.33,179.69 219.43,178.59 222.07,176.96 "/>
<polygon class="st3" points="231.27,193.01 232.26,193.85 233.5,193.51 233.01,194.71 233.72,195.79 232.43,195.69 231.62,196.7 
	231.32,195.44 230.11,194.98 231.21,194.3 "/>
<polygon class="st3" points="210.71,161.89 211.7,162.72 212.95,162.38 212.46,163.58 213.16,164.66 211.87,164.56 211.06,165.57 
	210.76,164.31 209.55,163.86 210.65,163.18 "/>
<polygon class="st3" points="312.71,167.79 314.08,170.58 317.16,171.02 314.93,173.19 315.46,176.25 312.71,174.81 309.96,176.25 
	310.49,173.19 308.26,171.02 311.34,170.58 "/>
<polygon class="st3" points="277.53,158.69 278.6,160.86 281,161.21 279.27,162.91 279.68,165.3 277.53,164.17 275.38,165.3 
	275.79,162.91 274.06,161.21 276.46,160.86 "/>
<polygon class="st3" points="338.77,158.58 339.85,160.76 342.25,161.11 340.51,162.8 340.92,165.19 338.77,164.06 336.62,165.19 
	337.03,162.8 335.3,161.11 337.7,160.76 "/>
<polygon class="st5" points="212.89,237.52 224.27,257.22 228.4,264.38 231.24,270.97 220.1,263.19 227.55,286.7 214.93,265.74 
	204.39,293.97 206.78,260.83 206.78,260.83 206.78,260.83 194.25,278.78 199.63,260.48 202.86,254.9 "/>
<polygon class="st5" points="235.77,212.24 243.45,225.54 246.24,230.38 248.16,234.83 240.64,229.58 245.67,245.45 235.77,228.4 
	235.77,250.36 232.54,231.3 223.38,244.07 229.31,228.4 223.38,234.83 226.82,227.75 228.99,223.97 "/>
<polygon class="st6" points="259.88,221.73 287.97,270.38 316.05,319.03 259.88,319.03 245.13,297.09 231.79,270.38 "/>
<polygon class="st5" points="259.46,220.73 270.83,240.43 274.97,247.59 277.81,254.18 266.66,246.4 274.11,269.91 259.46,244.66 
	259.46,277.19 254.67,248.96 241.11,267.86 249.89,244.66 241.11,254.18 246.2,243.69 249.42,238.11 "/>
<polygon class="st3" points="283.8,212.43 286.17,214.44 289.17,213.62 287.99,216.5 289.69,219.1 286.59,218.86 284.64,221.28 
	283.91,218.27 281,217.16 283.65,215.53 "/>
<polygon class="st4" points="247.48,178.76 248.05,179.92 249.33,180.11 248.41,181.01 248.62,182.28 247.48,181.68 246.34,182.28 
	246.55,181.01 245.63,180.11 246.91,179.92 "/>
<polygon class="st4" points="176.48,211.76 177.05,212.92 178.33,213.11 177.41,214.01 177.62,215.28 176.48,214.68 175.34,215.28 
	175.55,214.01 174.63,213.11 175.91,212.92 "/>
</svg>
