<?xml version="1.0" encoding="utf-8"?>
<!-- Generator: Adobe Illustrator 26.0.3, SVG Export Plug-In . SVG Version: 6.00 Build 0)  -->
<svg version="1.1" id="Layer_1" xmlns="http://www.w3.org/2000/svg" xmlns:xlink="http://www.w3.org/1999/xlink" x="0px" y="0px"
	 viewBox="0 0 500 500" style="enable-background:new 0 0 500 500;" xml:space="preserve">
<style type="text/css">
	.st0{fill:#E6E7E8;stroke:#E6E7E8;stroke-miterlimit:10;}
	.st1{opacity:0.74;fill:#D1D3D4;stroke:#BCBEC0;stroke-miterlimit:10;}
	.st2{opacity:0.74;fill:#A7A9AC;stroke:#BCBEC0;stroke-miterlimit:10;}
	.st3{opacity:0.74;fill:#FFFFFF;stroke:#E6E7E8;stroke-width:0.25;stroke-miterlimit:10;}
	.st4{opacity:0.74;fill:#FFFFFF;stroke:#F1F2F2;stroke-width:0.25;stroke-miterlimit:10;}
	.st5{opacity:0.74;fill:#FFFFFF;stroke:#E6E7E8;stroke-miterlimit:10;}
	.st6{opacity:0.74;fill:#BCBEC0;stroke:#BCBEC0;stroke-miterlimit:10;}
	.st7{fill:#999999;}
	.st8{font-family:'ArialNarrow';}
	.st9{font-size:67.271px;}
</style>
<rect x="0.41" y="1.39" class="st0" width="500" height="500"/>
<rect x="28.55" y="33.04" class="st1" width="443.68" height="377.03"/>
<polygon class="st2" points="189.52,181.48 248.82,264.5 308.11,347.52 189.52,347.52 70.94,347.52 130.23,264.5 "/>
<polygon class="st3" points="69.27,65.09 71.61,69.84 76.85,70.6 73.06,74.3 73.96,79.53 69.27,77.06 64.58,79.53 65.47,74.3 
	61.68,70.6 66.92,69.84 "/>
<polygon class="st3" points="133.04,71.48 134.87,75.19 138.97,75.78 136.01,78.67 136.71,82.75 133.04,80.83 129.38,82.75 
	130.08,78.67 127.11,75.78 131.21,75.19 "/>
<polygon class="st3" points="76.85,139.8 77.83,141.78 80.01,142.1 78.43,143.64 78.81,145.81 76.85,144.78 74.9,145.81 
	75.27,143.64 73.7,142.1 75.88,141.78 "/>
<polygon class="st3" points="158.64,97.61 160.98,102.36 166.22,103.12 162.43,106.82 163.33,112.04 158.64,109.58 153.95,112.04 
	154.84,106.82 151.05,103.12 156.29,102.36 "/>
<polygon class="st3" points="94.42,98.82 95.39,100.79 97.57,101.11 95.99,102.65 96.37,104.82 94.42,103.8 92.46,104.82 
	92.84,102.65 91.26,101.11 93.44,100.79 "/>
<polygon class="st3" points="101.94,44.18 102.92,46.16 105.1,46.48 103.52,48.02 103.89,50.19 101.94,49.17 99.99,50.19 
	100.36,48.02 98.78,46.48 100.96,46.16 "/>
<polygon class="st4" points="164.95,66.3 165.93,68.28 168.11,68.59 166.53,70.13 166.91,72.31 164.95,71.28 163,72.31 
	163.37,70.13 161.79,68.59 163.98,68.28 "/>
<polygon class="st3" points="415.25,108.55 420.55,108.76 423.72,104.52 425.16,109.62 430.17,111.32 425.77,114.27 425.69,119.57 
	421.53,116.28 416.47,117.85 418.31,112.88 "/>
<polygon class="st3" points="328.34,89.58 330.54,89.66 331.86,87.9 332.46,90.02 334.55,90.73 332.71,91.96 332.68,94.16 
	330.95,92.79 328.84,93.45 329.61,91.38 "/>
<polygon class="st3" points="287.04,81.3 289.24,81.39 290.56,79.62 291.16,81.74 293.25,82.45 291.42,83.68 291.38,85.88 
	289.65,84.52 287.55,85.17 288.31,83.1 "/>
<polygon class="st3" points="213.06,69.43 217.11,72.85 222.22,71.47 220.21,76.37 223.11,80.81 217.82,80.41 214.5,84.54 
	213.25,79.39 208.29,77.5 212.8,74.72 "/>
<polygon class="st3" points="228.5,102.12 230.18,103.55 232.31,102.97 231.47,105.01 232.68,106.86 230.48,106.69 229.1,108.41 
	228.58,106.27 226.51,105.48 228.39,104.32 "/>
<polygon class="st3" points="193.42,49 195.1,50.43 197.23,49.85 196.39,51.89 197.6,53.74 195.4,53.57 194.02,55.29 193.49,53.15 
	191.43,52.36 193.31,51.2 "/>
<polygon class="st3" points="367.47,59.08 369.82,63.83 375.06,64.6 371.27,68.29 372.16,73.52 367.47,71.05 362.78,73.52 
	363.68,68.29 359.88,64.6 365.13,63.83 "/>
<polygon class="st3" points="307.44,43.54 309.27,47.26 313.37,47.85 310.4,50.74 311.1,54.82 307.44,52.9 303.77,54.82 
	304.47,50.74 301.51,47.85 305.61,47.26 "/>
<polygon class="st3" points="411.94,43.36 413.78,47.08 417.87,47.67 414.91,50.56 415.61,54.64 411.94,52.71 408.28,54.64 
	408.98,50.56 406.02,47.67 410.11,47.08 "/>
<polygon class="st5" points="239.68,161.17 254.54,183.87 259.94,192.13 263.65,199.72 249.09,190.76 258.83,217.86 239.68,188.75 
	239.68,226.23 233.42,193.7 215.7,215.49 227.17,188.75 215.7,199.72 222.35,187.64 226.56,181.2 "/>
<polygon class="st5" points="187.73,178.06 211.73,211.68 220.46,223.9 226.46,235.15 202.93,221.88 218.66,262 192.02,226.23 
	169.79,274.41 174.83,217.85 174.83,217.85 174.83,217.85 148.37,248.48 159.74,217.25 166.54,207.72 "/>
<polygon class="st6" points="288.26,151.12 347.14,234.14 406.02,317.16 288.26,317.16 257.35,279.73 229.38,234.14 "/>
<polygon class="st5" points="287.38,149.41 311.23,183.03 319.89,195.25 325.84,206.5 302.49,193.23 318.1,233.35 287.38,190.25 
	287.38,245.76 277.35,197.58 248.92,229.85 267.32,190.25 248.92,206.5 259.59,188.6 266.35,179.07 "/>
<polygon class="st3" points="318.14,135.25 322.18,138.68 327.29,137.29 325.28,142.19 328.18,146.63 322.9,146.23 319.57,150.36 
	318.32,145.21 313.37,143.33 317.88,140.54 "/>
<polygon class="st4" points="256.16,77.8 257.13,79.78 259.32,80.1 257.74,81.64 258.11,83.81 256.16,82.79 254.21,83.81 
	254.58,81.64 253,80.1 255.18,79.78 "/>
<polygon class="st4" points="135,134.12 135.98,136.1 138.16,136.41 136.58,137.95 136.95,140.13 135,139.1 133.05,140.13 
	133.42,137.95 131.84,136.41 134.02,136.1 "/>
<text transform="matrix(1 0 0 1 29.7314 473.4258)" class="st7 st8 st9">No media to show</text>
</svg>
