<?xml version="1.0" encoding="utf-8"?>
<!-- Generator: Adobe Illustrator 26.0.3, SVG Export Plug-In . SVG Version: 6.00 Build 0)  -->
<svg version="1.1" id="Layer_1" xmlns="http://www.w3.org/2000/svg" xmlns:xlink="http://www.w3.org/1999/xlink" x="0px" y="0px"
	 viewBox="0 0 500 500" style="enable-background:new 0 0 500 500;" xml:space="preserve">
<style type="text/css">
	.st0{fill:#E6E7E8;stroke:#E6E7E8;stroke-miterlimit:10;}
	.st1{opacity:0.74;fill:#D1D3D4;stroke:#BCBEC0;stroke-miterlimit:10;}
	.st2{opacity:0.74;fill:#BCBEC0;stroke:#BCBEC0;stroke-miterlimit:10;}
	.st3{opacity:0.74;fill:#A7A9AC;stroke:#BCBEC0;stroke-miterlimit:10;}
	.st4{opacity:0.74;fill:#FFFFFF;stroke:#E6E7E8;stroke-width:0.25;stroke-miterlimit:10;}
	.st5{opacity:0.74;fill:#FFFFFF;stroke:#F1F2F2;stroke-width:0.25;stroke-miterlimit:10;}
	.st6{opacity:0.74;fill:#FFFFFF;stroke:#E6E7E8;stroke-miterlimit:10;}
	.st7{fill:none;stroke:#BCBEC0;stroke-width:2;stroke-miterlimit:10;}
</style>
<rect x="0.32" y="0.83" class="st0" width="500" height="500"/>
<rect x="112.41" y="152.3" class="st1" width="275.19" height="195.4"/>
<polygon class="st2" points="266.17,193.46 299.62,251.39 333.06,309.32 266.17,309.32 248.61,283.21 232.72,251.39 "/>
<polygon class="st3" points="210.79,214.58 244.23,272.52 277.68,330.45 210.79,330.45 143.89,330.45 177.34,272.52 "/>
<polygon class="st4" points="141.71,173.26 143.35,176.57 147.01,177.11 144.36,179.69 144.98,183.33 141.71,181.61 138.44,183.33 
	139.06,179.69 136.42,177.11 140.08,176.57 "/>
<polygon class="st4" points="169.48,179.4 170.75,181.99 173.61,182.4 171.55,184.42 172.03,187.27 169.48,185.92 166.92,187.27 
	167.41,184.42 165.34,182.4 168.2,181.99 "/>
<polygon class="st4" points="160.95,224.98 161.63,226.36 163.15,226.58 162.05,227.65 162.31,229.17 160.95,228.46 159.59,229.17 
	159.85,227.65 158.75,226.58 160.27,226.36 "/>
<polygon class="st4" points="187.34,197.63 188.97,200.95 192.63,201.48 189.98,204.06 190.61,207.7 187.34,205.98 184.06,207.7 
	184.69,204.06 182.04,201.48 185.7,200.95 "/>
<polygon class="st4" points="142.52,198.47 143.2,199.85 144.73,200.08 143.62,201.15 143.88,202.67 142.52,201.95 141.16,202.67 
	141.42,201.15 140.32,200.08 141.84,199.85 "/>
<polygon class="st4" points="147.77,160.35 148.45,161.73 149.98,161.95 148.88,163.03 149.14,164.54 147.77,163.83 146.41,164.54 
	146.67,163.03 145.57,161.95 147.09,161.73 "/>
<polygon class="st5" points="191.74,175.78 192.43,177.16 193.95,177.39 192.85,178.46 193.11,179.98 191.74,179.26 190.38,179.98 
	190.64,178.46 189.54,177.39 191.06,177.16 "/>
<polygon class="st4" points="333.06,205.27 336.76,205.41 338.97,202.45 339.98,206.01 343.48,207.2 340.4,209.26 340.35,212.95 
	337.45,210.66 333.91,211.76 335.2,208.29 "/>
<polygon class="st4" points="305.75,192.03 307.29,192.09 308.21,190.86 308.63,192.34 310.09,192.83 308.81,193.69 308.79,195.23 
	307.58,194.27 306.11,194.73 306.64,193.28 "/>
<polygon class="st4" points="274.77,169.21 276.31,169.27 277.23,168.03 277.65,169.52 279.1,170.01 277.82,170.87 277.8,172.41 
	276.59,171.45 275.12,171.91 275.66,170.46 "/>
<polygon class="st4" points="225.32,177.97 228.14,180.36 231.71,179.39 230.3,182.81 232.33,185.91 228.64,185.63 226.32,188.51 
	225.44,184.92 221.99,183.6 225.13,181.66 "/>
<polygon class="st4" points="236.09,200.78 237.26,201.78 238.75,201.37 238.16,202.8 239.01,204.09 237.47,203.97 236.51,205.17 
	236.14,203.67 234.7,203.13 236.01,202.32 "/>
<polygon class="st4" points="211.61,163.71 212.78,164.71 214.27,164.31 213.68,165.73 214.53,167.02 212.99,166.9 212.03,168.1 
	211.66,166.61 210.22,166.06 211.53,165.25 "/>
<polygon class="st4" points="333.06,170.75 334.7,174.06 338.36,174.6 335.71,177.18 336.34,180.82 333.06,179.1 329.79,180.82 
	330.42,177.18 327.77,174.6 331.43,174.06 "/>
<polygon class="st4" points="291.17,159.91 292.45,162.5 295.31,162.91 293.24,164.93 293.73,167.78 291.17,166.43 288.62,167.78 
	289.1,164.93 287.03,162.91 289.89,162.5 "/>
<polygon class="st4" points="364.1,159.78 365.38,162.37 368.24,162.79 366.17,164.8 366.66,167.65 364.1,166.3 361.54,167.65 
	362.03,164.8 359.96,162.79 362.82,162.37 "/>
<polygon class="st6" points="210.79,213.19 224.33,236.65 229.25,245.18 232.64,253.03 219.37,243.77 228.24,271.76 213.21,246.81 
	200.67,280.42 203.51,240.96 203.51,240.96 203.51,240.96 188.59,262.33 195,240.54 198.84,233.89 "/>
<polygon class="st6" points="266.17,193.46 279.71,216.92 284.64,225.45 288.02,233.29 274.75,224.04 283.62,252.03 266.17,221.96 
	266.17,260.69 260.47,227.08 244.32,249.59 254.77,221.96 244.32,233.29 250.38,220.81 254.22,214.16 "/>
<line class="st7" x1="112.41" y1="347.7" x2="0" y2="460.11"/>
<line class="st7" x1="388" y1="347.7" x2="500.41" y2="460.11"/>
<line class="st7" x1="388" y1="152.11" x2="500.41" y2="39.7"/>
<line class="st7" x1="112.41" y1="152.11" x2="0" y2="39.7"/>
</svg>
