<?xml version="1.0" encoding="utf-8"?>
<!-- Generator: Adobe Illustrator 26.0.3, SVG Export Plug-In . SVG Version: 6.00 Build 0)  -->
<svg version="1.1" id="Layer_1" xmlns="http://www.w3.org/2000/svg" xmlns:xlink="http://www.w3.org/1999/xlink" x="0px" y="0px"
	 viewBox="0 0 500 500" style="enable-background:new 0 0 500 500;" xml:space="preserve">
<style type="text/css">
	.st0{fill:#E6E7E8;stroke:#E6E7E8;stroke-miterlimit:10;}
	.st1{opacity:0.74;fill:#D1D3D4;stroke:#BCBEC0;stroke-miterlimit:10;}
	.st2{opacity:0.74;fill:#BCBEC0;stroke:#BCBEC0;stroke-miterlimit:10;}
	.st3{opacity:0.74;fill:#A7A9AC;stroke:#BCBEC0;stroke-miterlimit:10;}
	.st4{opacity:0.74;fill:#FFFFFF;stroke:#000000;stroke-width:0.25;stroke-miterlimit:10;}
	.st5{opacity:0.74;fill:#FFFFFF;stroke:#E6E7E8;stroke-miterlimit:10;}
	.st6{fill:none;stroke:#D1D3D4;stroke-miterlimit:10;}
</style>
<rect class="st0" width="500" height="500"/>
<rect x="151.17" y="167.82" class="st1" width="197.66" height="140.35"/>
<polygon class="st2" points="261.61,197.39 285.64,239 309.66,280.61 261.61,280.61 249,261.85 237.59,239 "/>
<polygon class="st3" points="221.83,212.56 245.86,254.17 269.88,295.78 221.83,295.78 173.79,295.78 197.81,254.17 "/>
<polygon class="st4" points="172.22,182.88 173.39,185.26 176.02,185.64 174.12,187.5 174.57,190.11 172.22,188.88 169.87,190.11 
	170.32,187.5 168.42,185.64 171.04,185.26 "/>
<polygon class="st4" points="192.16,173.93 193.08,175.8 195.13,176.09 193.65,177.54 194,179.59 192.16,178.62 190.32,179.59 
	190.68,177.54 189.19,176.09 191.24,175.8 "/>
<polygon class="st4" points="184.45,189.64 184.94,190.63 186.04,190.79 185.25,191.56 185.43,192.65 184.45,192.14 183.48,192.65 
	183.66,191.56 182.87,190.79 183.97,190.63 "/>
<polygon class="st4" points="206.57,179.23 207.74,181.61 210.37,181.99 208.47,183.84 208.92,186.46 206.57,185.23 204.21,186.46 
	204.66,183.84 202.76,181.99 205.39,181.61 "/>
<polygon class="st4" points="172.8,200.99 173.29,201.98 174.38,202.14 173.59,202.91 173.78,204 172.8,203.49 171.82,204 
	172.01,202.91 171.22,202.14 172.31,201.98 "/>
<polygon class="st4" points="176.57,173.61 177.06,174.6 178.16,174.76 177.36,175.53 177.55,176.62 176.57,176.11 175.59,176.62 
	175.78,175.53 174.99,174.76 176.08,174.6 "/>
<polygon class="st4" points="206.57,171.61 207.06,172.6 208.16,172.76 207.36,173.53 207.55,174.62 206.57,174.11 205.59,174.62 
	205.78,173.53 204.99,172.76 206.08,172.6 "/>
<polygon class="st4" points="273.86,188.22 276.51,188.33 278.1,186.2 278.82,188.75 281.34,189.61 279.13,191.09 279.09,193.74 
	277,192.1 274.47,192.88 275.39,190.39 "/>
<polygon class="st4" points="290.05,196.36 291.15,196.4 291.81,195.52 292.11,196.58 293.16,196.94 292.24,197.55 292.23,198.66 
	291.36,197.97 290.3,198.3 290.68,197.26 "/>
<polygon class="st4" points="267.79,179.97 268.9,180.01 269.56,179.13 269.86,180.19 270.9,180.55 269.99,181.16 269.97,182.27 
	269.1,181.58 268.05,181.91 268.43,180.87 "/>
<polygon class="st4" points="232.27,186.26 234.3,187.98 236.86,187.28 235.85,189.74 237.3,191.96 234.66,191.76 232.99,193.83 
	232.36,191.25 229.88,190.31 232.14,188.91 "/>
<polygon class="st4" points="240.01,202.65 240.85,203.36 241.92,203.07 241.5,204.1 242.1,205.02 241,204.94 240.31,205.8 
	240.05,204.72 239.01,204.33 239.95,203.75 "/>
<polygon class="st4" points="232.58,176.02 233.42,176.74 234.49,176.45 234.07,177.47 234.67,178.4 233.57,178.31 232.88,179.17 
	232.62,178.1 231.58,177.71 232.52,177.13 "/>
<polygon class="st4" points="325.57,175.5 326.75,177.88 329.38,178.26 327.47,180.11 327.92,182.73 325.57,181.5 323.22,182.73 
	323.67,180.11 321.77,178.26 324.4,177.88 "/>
<polygon class="st4" points="279.57,173.29 280.49,175.15 282.54,175.45 281.06,176.89 281.41,178.94 279.57,177.97 277.74,178.94 
	278.09,176.89 276.6,175.45 278.65,175.15 "/>
<polygon class="st4" points="295.57,173.29 296.49,175.15 298.54,175.45 297.06,176.89 297.41,178.94 295.57,177.97 293.74,178.94 
	294.09,176.89 292.6,175.45 294.65,175.15 "/>
<polygon class="st5" points="221.83,211.56 231.56,228.41 235.1,234.54 237.53,240.17 228,233.52 234.37,253.63 223.57,235.71 
	214.57,259.85 216.61,231.51 216.61,231.51 216.61,231.51 205.89,246.85 210.49,231.2 213.25,226.43 "/>
<polygon class="st5" points="261.61,197.39 271.34,214.24 274.88,220.36 277.31,226 267.78,219.35 274.15,239.46 261.61,217.86 
	261.61,245.68 257.52,221.53 245.92,237.71 253.43,217.86 245.92,226 250.27,217.03 253.03,212.26 "/>
<line class="st6" x1="348.75" y1="308.26" x2="496.84" y2="456.35"/>
<line class="st6" x1="348.75" y1="168.35" x2="496.84" y2="20.26"/>
<line class="st6" x1="150.84" y1="308.26" x2="2.75" y2="456.35"/>
<line class="st6" x1="150.84" y1="168.35" x2="2.75" y2="20.26"/>
</svg>
