<?xml version="1.0" encoding="utf-8"?>
<!-- Generator: Adobe Illustrator 26.0.3, SVG Export Plug-In . SVG Version: 6.00 Build 0)  -->
<svg version="1.1" id="Layer_1" xmlns="http://www.w3.org/2000/svg" xmlns:xlink="http://www.w3.org/1999/xlink" x="0px" y="0px"
	 viewBox="0 0 500 500" style="enable-background:new 0 0 500 500;" xml:space="preserve">
<style type="text/css">
	.st0{fill:#E6E7E8;stroke:#E6E7E8;stroke-miterlimit:10;}
	.st1{opacity:0.74;fill:#D1D3D4;stroke:#BCBEC0;stroke-miterlimit:10;}
	.st2{opacity:0.74;fill:#A7A9AC;stroke:#BCBEC0;stroke-miterlimit:10;}
	.st3{opacity:0.74;fill:#FFFFFF;stroke:#E6E7E8;stroke-width:0.25;stroke-miterlimit:10;}
	.st4{opacity:0.74;fill:#FFFFFF;stroke:#F1F2F2;stroke-width:0.25;stroke-miterlimit:10;}
	.st5{opacity:0.74;fill:#FFFFFF;stroke:#E6E7E8;stroke-miterlimit:10;}
	.st6{opacity:0.74;fill:#BCBEC0;stroke:#BCBEC0;stroke-miterlimit:10;}
	.st7{fill:#8AC1BF;}
	.st8{font-family:'ArialNarrow';}
	.st9{font-size:24px;}
</style>
<rect x="0.41" y="1.39" class="st0" width="500" height="500"/>
<rect x="61.89" y="91.6" class="st1" width="375.94" height="289.18"/>
<polygon class="st2" points="198.29,217.38 248.53,287.72 298.77,358.06 198.29,358.06 97.81,358.06 148.05,287.72 "/>
<polygon class="st3" points="96.39,118.76 98.38,122.79 102.82,123.43 99.61,126.57 100.37,130.99 96.39,128.9 92.42,130.99 
	93.18,126.57 89.96,123.43 94.41,122.79 "/>
<polygon class="st3" points="150.43,124.17 151.98,127.32 155.46,127.82 152.94,130.27 153.54,133.73 150.43,132.09 147.33,133.73 
	147.92,130.27 145.41,127.82 148.88,127.32 "/>
<polygon class="st3" points="102.82,182.07 103.65,183.74 105.5,184.01 104.16,185.31 104.48,187.16 102.82,186.29 101.17,187.16 
	101.48,185.31 100.15,184.01 102,183.74 "/>
<polygon class="st3" points="172.12,146.31 174.1,150.34 178.55,150.98 175.33,154.12 176.09,158.54 172.12,156.45 168.14,158.54 
	168.9,154.12 165.69,150.98 170.13,150.34 "/>
<polygon class="st3" points="117.7,147.34 118.53,149.01 120.38,149.28 119.04,150.59 119.36,152.43 117.7,151.56 116.05,152.43 
	116.36,150.59 115.03,149.28 116.88,149.01 "/>
<polygon class="st3" points="124.08,101.05 124.91,102.72 126.76,102.99 125.42,104.3 125.73,106.14 124.08,105.27 122.42,106.14 
	122.74,104.3 121.4,102.99 123.25,102.72 "/>
<polygon class="st4" points="177.47,119.79 178.3,121.46 180.15,121.73 178.81,123.03 179.12,124.88 177.47,124.01 175.82,124.88 
	176.13,123.03 174.79,121.73 176.64,121.46 "/>
<polygon class="st3" points="389.55,155.59 394.04,155.76 396.73,152.17 397.95,156.49 402.2,157.94 398.46,160.43 398.4,164.92 
	394.88,162.14 390.59,163.47 392.14,159.25 "/>
<polygon class="st3" points="315.91,139.51 317.78,139.58 318.89,138.09 319.4,139.88 321.17,140.49 319.62,141.52 319.59,143.39 
	318.12,142.24 316.34,142.79 316.99,141.04 "/>
<polygon class="st3" points="280.92,132.5 282.78,132.57 283.9,131.07 284.41,132.87 286.18,133.47 284.62,134.51 284.6,136.38 
	283.13,135.22 281.35,135.78 281.99,134.02 "/>
<polygon class="st3" points="218.24,122.43 221.66,125.34 225.99,124.16 224.29,128.32 226.75,132.08 222.27,131.74 219.45,135.24 
	218.39,130.87 214.19,129.28 218.01,126.92 "/>
<polygon class="st3" points="231.31,150.14 232.74,151.35 234.54,150.86 233.83,152.59 234.86,154.15 232.99,154.01 231.82,155.47 
	231.38,153.65 229.63,152.99 231.22,152 "/>
<polygon class="st3" points="201.59,105.13 203.01,106.34 204.82,105.85 204.11,107.58 205.13,109.14 203.27,109 202.1,110.46 
	201.65,108.64 199.91,107.98 201.5,107 "/>
<polygon class="st3" points="349.07,113.67 351.05,117.7 355.5,118.34 352.28,121.48 353.04,125.9 349.07,123.81 345.09,125.9 
	345.85,121.48 342.64,118.34 347.08,117.7 "/>
<polygon class="st3" points="298.2,100.5 299.75,103.65 303.22,104.15 300.71,106.6 301.31,110.06 298.2,108.43 295.1,110.06 
	295.69,106.6 293.18,104.15 296.65,103.65 "/>
<polygon class="st3" points="386.75,100.35 388.3,103.5 391.78,104 389.26,106.45 389.86,109.91 386.75,108.27 383.65,109.91 
	384.24,106.45 381.73,104 385.2,103.5 "/>
<polygon class="st5" points="240.78,200.17 253.38,219.41 257.95,226.4 261.1,232.84 248.76,225.24 257.01,248.2 240.78,223.54 
	240.78,255.3 235.49,227.74 220.47,246.2 230.19,223.54 220.47,232.84 226.1,222.6 229.67,217.14 "/>
<polygon class="st5" points="196.77,214.48 217.11,242.97 224.5,253.32 229.58,262.85 209.65,251.61 222.98,285.61 200.4,255.3 
	181.57,296.12 185.84,248.2 185.84,248.2 185.84,248.2 163.42,274.15 173.05,247.69 178.82,239.62 "/>
<polygon class="st6" points="281.95,191.65 331.84,262 381.73,332.34 281.95,332.34 255.76,300.63 232.06,262 "/>
<polygon class="st5" points="281.21,190.21 301.41,218.69 308.75,229.05 313.8,238.58 294.01,227.34 307.24,261.33 281.21,224.82 
	281.21,271.84 272.71,231.03 248.62,258.37 264.21,224.82 248.62,238.58 257.66,223.42 263.38,215.34 "/>
<polygon class="st3" points="307.27,178.21 310.69,181.11 315.02,179.94 313.32,184.09 315.78,187.85 311.3,187.51 308.48,191.01 
	307.42,186.65 303.22,185.05 307.04,182.69 "/>
<polygon class="st4" points="254.75,129.53 255.58,131.21 257.43,131.48 256.09,132.78 256.4,134.62 254.75,133.75 253.1,134.62 
	253.41,132.78 252.07,131.48 253.92,131.21 "/>
<polygon class="st4" points="152.09,177.25 152.92,178.92 154.77,179.19 153.43,180.5 153.74,182.34 152.09,181.47 150.44,182.34 
	150.75,180.5 149.41,179.19 151.26,178.92 "/>
<text transform="matrix(1 0 0 1 177.4706 415.2761)" class="st7 st8 st9">No media to show</text>
</svg>
