<?xml version="1.0" encoding="utf-8"?>
<!-- Generator: Adobe Illustrator 26.0.3, SVG Export Plug-In . SVG Version: 6.00 Build 0)  -->
<svg version="1.1" id="Layer_1" xmlns="http://www.w3.org/2000/svg" xmlns:xlink="http://www.w3.org/1999/xlink" x="0px" y="0px"
	 viewBox="0 0 500 500" style="enable-background:new 0 0 500 500;" xml:space="preserve">
<style type="text/css">
	.st0{fill:#E6E7E8;stroke:#E6E7E8;stroke-miterlimit:10;}
	.st1{opacity:0.74;fill:#D1D3D4;stroke:#BCBEC0;stroke-miterlimit:10;}
	.st2{opacity:0.74;fill:#A7A9AC;stroke:#BCBEC0;stroke-miterlimit:10;}
	.st3{opacity:0.74;fill:#FFFFFF;stroke:#E6E7E8;stroke-width:0.25;stroke-miterlimit:10;}
	.st4{opacity:0.74;fill:#FFFFFF;stroke:#F1F2F2;stroke-width:0.25;stroke-miterlimit:10;}
	.st5{opacity:0.74;fill:#FFFFFF;stroke:#E6E7E8;stroke-miterlimit:10;}
	.st6{opacity:0.74;fill:#BCBEC0;stroke:#BCBEC0;stroke-miterlimit:10;}
</style>
<rect x="0.41" y="1.39" class="st0" width="500" height="500"/>
<rect x="28.55" y="65.04" class="st1" width="443.68" height="377.03"/>
<polygon class="st2" points="189.52,213.48 248.82,296.5 308.11,379.52 189.52,379.52 70.94,379.52 130.23,296.5 "/>
<polygon class="st3" points="69.27,97.09 71.61,101.84 76.85,102.6 73.06,106.3 73.96,111.53 69.27,109.06 64.58,111.53 
	65.47,106.3 61.68,102.6 66.92,101.84 "/>
<polygon class="st3" points="133.04,103.48 134.87,107.19 138.97,107.78 136.01,110.67 136.71,114.75 133.04,112.83 129.38,114.75 
	130.08,110.67 127.11,107.78 131.21,107.19 "/>
<polygon class="st3" points="76.85,171.8 77.83,173.78 80.01,174.1 78.43,175.64 78.81,177.81 76.85,176.78 74.9,177.81 
	75.27,175.64 73.7,174.1 75.88,173.78 "/>
<polygon class="st3" points="158.64,129.61 160.98,134.36 166.22,135.12 162.43,138.82 163.33,144.04 158.64,141.58 153.95,144.04 
	154.84,138.82 151.05,135.12 156.29,134.36 "/>
<polygon class="st3" points="94.42,130.82 95.39,132.79 97.57,133.11 95.99,134.65 96.37,136.82 94.42,135.8 92.46,136.82 
	92.84,134.65 91.26,133.11 93.44,132.79 "/>
<polygon class="st3" points="101.94,76.18 102.92,78.16 105.1,78.48 103.52,80.02 103.89,82.19 101.94,81.17 99.99,82.19 
	100.36,80.02 98.78,78.48 100.96,78.16 "/>
<polygon class="st4" points="164.95,98.3 165.93,100.28 168.11,100.59 166.53,102.13 166.91,104.31 164.95,103.28 163,104.31 
	163.37,102.13 161.79,100.59 163.98,100.28 "/>
<polygon class="st3" points="415.25,140.55 420.55,140.76 423.72,136.52 425.16,141.62 430.17,143.32 425.77,146.27 425.69,151.57 
	421.53,148.28 416.47,149.85 418.31,144.88 "/>
<polygon class="st3" points="328.34,121.58 330.54,121.66 331.86,119.9 332.46,122.02 334.55,122.73 332.71,123.96 332.68,126.16 
	330.95,124.79 328.84,125.45 329.61,123.38 "/>
<polygon class="st3" points="287.04,113.3 289.24,113.39 290.56,111.62 291.16,113.74 293.25,114.45 291.42,115.68 291.38,117.88 
	289.65,116.52 287.55,117.17 288.31,115.1 "/>
<polygon class="st3" points="213.06,101.43 217.11,104.85 222.22,103.47 220.21,108.37 223.11,112.81 217.82,112.41 214.5,116.54 
	213.25,111.39 208.29,109.5 212.8,106.72 "/>
<polygon class="st3" points="228.5,134.12 230.18,135.55 232.31,134.97 231.47,137.01 232.68,138.86 230.48,138.69 229.1,140.41 
	228.58,138.27 226.51,137.48 228.39,136.32 "/>
<polygon class="st3" points="193.42,81 195.1,82.43 197.23,81.85 196.39,83.89 197.6,85.74 195.4,85.57 194.02,87.29 193.49,85.15 
	191.43,84.36 193.31,83.2 "/>
<polygon class="st3" points="367.47,91.08 369.82,95.83 375.06,96.6 371.27,100.29 372.16,105.52 367.47,103.05 362.78,105.52 
	363.68,100.29 359.88,96.6 365.13,95.83 "/>
<polygon class="st3" points="307.44,75.54 309.27,79.26 313.37,79.85 310.4,82.74 311.1,86.82 307.44,84.9 303.77,86.82 
	304.47,82.74 301.51,79.85 305.61,79.26 "/>
<polygon class="st3" points="411.94,75.36 413.78,79.08 417.87,79.67 414.91,82.56 415.61,86.64 411.94,84.71 408.28,86.64 
	408.98,82.56 406.02,79.67 410.11,79.08 "/>
<polygon class="st5" points="239.68,193.17 254.54,215.87 259.94,224.13 263.65,231.72 249.09,222.76 258.83,249.86 239.68,220.75 
	239.68,258.23 233.42,225.7 215.7,247.49 227.17,220.75 215.7,231.72 222.35,219.64 226.56,213.2 "/>
<polygon class="st5" points="187.73,210.06 211.73,243.68 220.46,255.9 226.46,267.15 202.93,253.88 218.66,294 192.02,258.23 
	169.79,306.41 174.83,249.85 174.83,249.85 174.83,249.85 148.37,280.48 159.74,249.25 166.54,239.72 "/>
<polygon class="st6" points="288.26,183.12 347.14,266.14 406.02,349.16 288.26,349.16 257.35,311.73 229.38,266.14 "/>
<polygon class="st5" points="287.38,181.41 311.23,215.03 319.89,227.25 325.84,238.5 302.49,225.23 318.1,265.35 287.38,222.25 
	287.38,277.76 277.35,229.58 248.92,261.85 267.32,222.25 248.92,238.5 259.59,220.6 266.35,211.07 "/>
<polygon class="st3" points="318.14,167.25 322.18,170.68 327.29,169.29 325.28,174.19 328.18,178.63 322.9,178.23 319.57,182.36 
	318.32,177.21 313.37,175.33 317.88,172.54 "/>
<polygon class="st4" points="256.16,109.8 257.13,111.78 259.32,112.1 257.74,113.64 258.11,115.81 256.16,114.79 254.21,115.81 
	254.58,113.64 253,112.1 255.18,111.78 "/>
<polygon class="st4" points="135,166.12 135.98,168.1 138.16,168.41 136.58,169.95 136.95,172.13 135,171.1 133.05,172.13 
	133.42,169.95 131.84,168.41 134.02,168.1 "/>
</svg>
