<?xml version="1.0" encoding="UTF-8"?>
<svg width="400" height="150" version="1.1" xmlns="http://www.w3.org/2000/svg">
	<g fill="none">
		<path d="m421 10c-10.7 0-20 5.3-29.4 10.6-9.36 5.3-18.7 10.6-29.4 10.6s-20-5.3-29.4-10.6c-9.36-5.3-18.7-10.6-29.4-10.6-10.7-9e-5 -20 5.3-29.4 10.6-9.36 5.3-18.7 10.6-29.4 10.6s-20-5.3-29.4-10.6c-9.36-5.3-18.7-10.6-29.4-10.6s-20 5.3-29.4 10.6c-9.36 5.3-18.7 10.6-29.4 10.6-10.7 9e-5 -20-5.3-29.4-10.6s-18.7-10.6-29.4-10.6c-10.7-9e-5 -20 5.3-29.4 10.6-9.36 5.3-18.7 10.6-29.4 10.6s-20-5.3-29.4-10.6" stroke="#f00"/>
		<path d="m-25 36.9c8.99 0 16.9 5.3 24.8 10.6 7.88 5.3 15.8 10.6 24.7 10.6 8.98-9e-5 16.9-5.3 24.7-10.6s15.8-10.6 24.7-10.6 16.9 5.3 24.7 10.6c7.88 5.3 15.8 10.6 24.7 10.6 8.98-9e-5 16.9-5.3 24.7-10.6s15.8-10.6 24.7-10.6c8.98 9e-5 16.9 5.3 24.7 10.6s15.8 10.6 24.7 10.6 16.9-5.3 24.7-10.6c7.88-5.3 15.8-10.6 24.7-10.6 8.98 9e-5 16.9 5.3 24.7 10.6 7.88 5.3 15.8 10.6 24.7 10.6s16.9-5.3 24.7-10.6c7.88-5.3 15.8-10.6 24.7-10.6 8.98 9e-5 16.9 5.3 24.7 10.6 7.88 5.3 15.8 10.6 24.8 10.6" stroke="#ff8d00"/>
		<path d="m-17 85.1c7.08 0 13.3-5.3 19.5-10.6 6.21-5.3 12.4-10.6 19.5-10.6s13.3 5.3 19.5 10.6c6.21 5.3 12.4 10.6 19.5 10.6s13.3-5.3 19.5-10.6c6.21-5.3 12.4-10.6 19.5-10.6s13.3 5.3 19.5 10.6c6.21 5.3 12.4 10.6 19.5 10.6 7.08-9e-5 13.3-5.3 19.5-10.6 6.21-5.3 12.4-10.6 19.5-10.6 7.08 1e-4 13.3 5.3 19.5 10.6s12.4 10.6 19.5 10.6c7.08-9e-5 13.3-5.3 19.5-10.6 6.21-5.3 12.4-10.6 19.5-10.6 7.08 9e-5 13.3 5.3 19.5 10.6 6.21 5.3 12.4 10.6 19.5 10.6s13.3-5.3 19.5-10.6c6.21-5.3 12.4-10.6 19.5-10.6s13.3 5.3 19.5 10.6c6.21 5.3 12.4 10.6 19.5 10.6 7.08-9e-5 13.3-5.3 19.5-10.6 6.21-5.3 12.4-10.6 19.5-10.6s13.3 5.3 19.5 10.6" stroke="#00a900"/>
		<path d="m423 101c-4.49-5.3-8.97-10.6-14.1-10.6-5.11-9e-5 -9.59 5.3-14.1 10.6-4.48 5.3-8.97 10.6-14.1 10.6-5.11 9e-5 -9.59-5.3-14.1-10.6-4.48-5.3-8.97-10.6-14.1-10.6s-9.59 5.3-14.1 10.6c-4.48 5.3-8.97 10.6-14.1 10.6-5.11 9e-5 -9.59-5.3-14.1-10.6-4.49-5.3-8.97-10.6-14.1-10.6-5.11-9e-5 -9.59 5.3-14.1 10.6-4.48 5.3-8.97 10.6-14.1 10.6s-9.59-5.3-14.1-10.6c-4.48-5.3-8.97-10.6-14.1-10.6-5.11-9e-5 -9.59 5.3-14.1 10.6-4.48 5.3-8.97 10.6-14.1 10.6-5.11 9e-5 -9.59-5.3-14.1-10.6s-8.97-10.6-14.1-10.6c-5.11-9e-5 -9.59 5.3-14.1 10.6-4.48 5.3-8.97 10.6-14.1 10.6s-9.59-5.3-14.1-10.6c-4.48-5.3-8.97-10.6-14.1-10.6-5.11-9e-5 -9.59 5.3-14.1 10.6-4.48 5.3-8.97 10.6-14.1 10.6s-9.59-5.3-14.1-10.6c-4.49-5.3-8.97-10.6-14.1-10.6-5.11-9e-5 -9.59 5.3-14.1 10.6-4.48 5.3-8.97 10.6-14.1 10.6-5.11 9e-5 -9.59-5.3-14.1-10.6-4.48-5.3-8.97-10.6-14.1-10.6-5.11-9e-5 -9.59 5.3-14.1 10.6-4.48 5.3-8.97 10.6-14.1 10.6-5.11 9e-5 -9.59-5.3-14.1-10.6" stroke="#0000da"/>
		<path d="m-33 128c2.3 5.3 4.6 10.6 7.22 10.6 2.62-9e-5 4.92-5.3 7.22-10.6s4.6-10.6 7.22-10.6c2.62 9e-5 4.92 5.3 7.22 10.6s4.6 10.6 7.22 10.6 4.92-5.3 7.22-10.6 4.6-10.6 7.22-10.6c2.62 9e-5 4.92 5.3 7.22 10.6s4.6 10.6 7.22 10.6c2.62-9e-5 4.92-5.3 7.22-10.6s4.6-10.6 7.22-10.6c2.62 9e-5 4.92 5.3 7.22 10.6s4.6 10.6 7.22 10.6 4.92-5.3 7.22-10.6 4.6-10.6 7.22-10.6 4.92 5.3 7.22 10.6 4.6 10.6 7.22 10.6c2.62-9e-5 4.92-5.3 7.22-10.6s4.6-10.6 7.22-10.6c2.62 9e-5 4.92 5.3 7.22 10.6s4.6 10.6 7.22 10.6c2.62-9e-5 4.92-5.3 7.22-10.6s4.6-10.6 7.22-10.6c2.62 9e-5 4.92 5.3 7.22 10.6s4.6 10.6 7.22 10.6c2.62-9e-5 4.92-5.3 7.22-10.6s4.6-10.6 7.22-10.6 4.92 5.3 7.22 10.6 4.6 10.6 7.22 10.6 4.92-5.3 7.22-10.6 4.6-10.6 7.22-10.6c2.62 9e-5 4.92 5.3 7.23 10.6 2.3 5.3 4.6 10.6 7.22 10.6s4.92-5.3 7.22-10.6 4.6-10.6 7.22-10.6c2.62 9e-5 4.92 5.3 7.22 10.6s4.6 10.6 7.22 10.6c2.62-9e-5 4.92-5.3 7.22-10.6s4.6-10.6 7.22-10.6c2.62 9e-5 4.92 5.3 7.22 10.6s4.6 10.6 7.22 10.6c2.62-9e-5 4.92-5.3 7.22-10.6s4.6-10.6 7.22-10.6c2.62 9e-5 4.92 5.3 7.22 10.6s4.6 10.6 7.22 10.6c2.62-9e-5 4.92-5.3 7.22-10.6s4.6-10.6 7.22-10.6c2.62 9e-5 4.92 5.3 7.22 10.6s4.6 10.6 7.22 10.6 4.92-5.3 7.22-10.6 4.6-10.6 7.22-10.6c2.62 9e-5 4.92 5.3 7.22 10.6s4.6 10.6 7.22 10.6c2.62-9e-5 4.92-5.3 7.22-10.6s4.6-10.6 7.22-10.6c2.62 9e-5 4.92 5.3 7.22 10.6s4.6 10.6 7.22 10.6c2.62-9e-5 4.92-5.3 7.22-10.6s4.6-10.6 7.22-10.6c2.62 9e-5 4.92 5.3 7.22 10.6s4.6 10.6 7.22 10.6c2.62-9e-5 4.92-5.3 7.22-10.6s4.6-10.6 7.22-10.6c2.62 9e-5 4.92 5.3 7.22 10.6" stroke="#dd00da"/>
	</g>
</svg>
