
<svg xmlns="http://www.w3.org/2000/svg" xmlns:xlink="http://www.w3.org/1999/xlink" version="1.1"  width="1539" height="644">
<defs id="dmw_defs" >
<svg id="fk_sym" viewBox="0 0 48.665 48.665" style="enable-background:new 0 0 48.665 48.665;" >
<g>
<path d="M40.332,31.592c-2.377,0-4.515,1-6.033,2.598l-17.737-8.686c0.061-0.406,0.103-0.82,0.103-1.246    c0-0.414-0.04-0.818-0.098-1.215l17.711-8.589c1.519,1.609,3.666,2.619,6.054,2.619c4.603,0,8.333-3.731,8.333-8.333    c0-4.603-3.73-8.333-8.333-8.333s-8.333,3.73-8.333,8.333c0,0.414,0.04,0.817,0.098,1.215l-17.709,8.589    c-1.519-1.609-3.666-2.619-6.054-2.619C3.73,15.925,0,19.656,0,24.258c0,4.603,3.73,8.333,8.333,8.333    c2.377,0,4.515-1,6.033-2.596l17.736,8.685c-0.062,0.406-0.104,0.82-0.104,1.245c0,4.604,3.73,8.333,8.333,8.333    s8.333-3.729,8.333-8.333C48.665,35.322,44.935,31.592,40.332,31.592z" fill="#13bf3b"/>
</g>
</svg>
<svg id="pk_sym" viewBox="0 0 480.509 480.509" style="enable-background:new 0 0 480.509 480.509;" >
<g>
<path d="M418.119,331.046c4.094,4.374,7.766,8.186,10.996,11.416c3.237,3.238,6.714,6.376,10.427,9.422   c3.71,3.042,6.427,4.568,8.135,4.568c3.241,0,9.517-4.661,18.843-13.99c9.328-9.321,13.989-15.604,13.989-18.842   c0-1.523-2.714-5.421-8.138-11.704c-5.421-6.276-12.364-13.702-20.838-22.271c-8.473-8.565-16.703-16.744-24.694-24.55   c-8.001-7.81-15.8-15.373-23.417-22.703c-7.611-7.327-11.992-11.56-13.135-12.703c-1.902-1.902-4.093-2.853-6.563-2.853   c-3.237,0-9.521,4.661-18.843,13.988c-9.328,9.322-13.989,15.605-13.989,18.843c0,1.711,1.522,4.421,4.568,8.138   c3.046,3.71,6.188,7.187,9.421,10.424c3.23,3.23,7.047,6.899,11.42,10.992c4.377,4.093,6.848,6.423,7.423,6.995l-27.408,27.404   L254.954,222.268c24.94-33.498,37.408-68.236,37.408-104.211c0-31.024-9.761-56.293-29.263-75.801   c-19.512-19.511-44.778-29.265-75.805-29.265c-30.454,0-60.244,9.042-89.363,27.119c-29.121,18.083-52.727,41.686-70.808,70.808   C9.042,140.038,0,169.828,0,200.28c0,31.029,9.753,56.286,29.265,75.803c19.511,19.517,44.777,29.27,75.801,29.27   c35.976,0,70.71-12.467,104.212-37.407l191.574,191.579c5.332,5.328,11.796,7.994,19.417,7.994c7.991,0,15.704-3.72,23.12-11.14   c7.426-7.426,11.143-15.129,11.143-23.127c0-7.617-2.666-14.092-7.994-19.417l-62.811-62.811l27.405-27.404   C411.699,324.195,414.033,326.666,418.119,331.046z M221.556,161.458c-10.656,10.657-23.601,15.987-38.828,15.987   c-7.996,0-15.896-1.812-23.7-5.43c3.617,7.808,5.426,15.706,5.426,23.7c0,15.229-5.327,28.171-15.987,38.828   c-10.66,10.655-23.606,15.986-38.831,15.986c-15.227,0-28.168-5.325-38.828-15.986c-10.657-10.657-15.987-23.599-15.987-38.828   c0-15.227,5.327-28.171,15.987-38.828C81.464,146.23,94.409,140.9,109.636,140.9c7.992,0,15.893,1.809,23.695,5.424   c-3.616-7.804-5.424-15.706-5.424-23.699c0-15.227,5.327-28.171,15.987-38.828c10.66-10.657,23.604-15.987,38.831-15.987   c15.227,0,28.171,5.327,38.828,15.987c10.657,10.66,15.987,23.601,15.987,38.828C237.539,137.852,232.209,150.797,221.556,161.458z   " fill="#ff8345"/>
</g>
</svg>
<svg id="uk_sym" viewBox="0 0 490 490" style="enable-background:new 0 0 490 490;" >
<g>
	<polygon points="236.99,11.41 0,246.348 236.99,478.678 236.99,350.609 129.864,245 236.99,139.391  " fill="#0064fb"/>
<polygon points="253.01,478.59 490,243.651 253.01,11.322 253.01,139.391 360.136,245 253.01,350.609  " fill="#0064fb"/>
</g>
</svg>
<svg id="link_sym" viewBox="0 0 1000 900" style="enable-background:new 0 0 1000 900;" >
<g>
<path fill="black" d="M660.224 422.656c6.976 16.192-0.512 35.008-16.768 42.048-16.128 6.976-34.944-0.448-41.984-16.768-8.448-19.776-20.736-37.696-36.224-53.248-64.64-64.64-177.344-64.64-241.92 0l-145.216 145.28c-66.688 66.688-66.688 175.232 0 241.984 66.688 66.688 175.104 66.752 241.92 0l92.8-92.864c12.48-12.48 32.768-12.48 45.248 0s12.48 32.768 0 45.248l-92.8 92.864c-91.648 91.648-240.832 91.52-332.416 0-91.712-91.648-91.712-240.832 0-332.48l145.216-145.28c44.352-44.416 103.424-68.864 166.272-68.864s121.792 24.448 166.208 68.864c21.248 21.312 38.016 45.952 49.664 73.216zM891.136 401.344l-145.216 145.216c-88.768 88.832-243.712 88.832-332.416 0-21.312-21.312-38.080-45.952-49.728-73.216-7.040-16.256 0.448-35.072 16.704-42.048 16.064-6.784 35.008 0.512 41.984 16.768 8.512 19.776 20.8 37.696 36.288 53.248 64.64 64.64 177.344 64.64 241.92 0l145.216-145.216c66.688-66.688 66.688-175.232 0-241.984-66.752-66.624-175.168-66.688-241.92 0l-92.8 92.864c-12.48 12.48-32.768 12.48-45.248 0s-12.48-32.768 0-45.248l92.8-92.864c45.824-45.824 105.984-68.736 166.208-68.736s120.448 22.912 166.272 68.736c91.584 91.648 91.584 240.768-0.064 332.48z" />
</g>
</svg>
<clipPath clipPathUnits="userSpaceOnUse" id="clipPath211_0_">
<rect x="0" y="0" width="345" height="88" />
</clipPath>
<clipPath clipPathUnits="userSpaceOnUse" id="clipPath711_0_">
<rect x="0" y="0" width="134" height="50" />
</clipPath>
<clipPath clipPathUnits="userSpaceOnUse" id="clipPath164_0_">
<rect x="0" y="0" width="573" height="154" />
</clipPath>
<clipPath clipPathUnits="userSpaceOnUse" id="clipPath169_0_">
<rect x="0" y="0" width="320" height="144" />
</clipPath>
<clipPath clipPathUnits="userSpaceOnUse" id="clipPath210_0_">
<rect x="0" y="0" width="214" height="43" />
</clipPath>
<clipPath clipPathUnits="userSpaceOnUse" id="clipPath706_0_">
<rect x="0" y="0" width="157" height="20" />
</clipPath>
<clipPath clipPathUnits="userSpaceOnUse" id="clipPath712_0_">
<rect x="0" y="0" width="181" height="54" />
</clipPath>
<clipPath clipPathUnits="userSpaceOnUse" id="clipPath203_0_">
<rect x="0" y="0" width="192" height="54" />
</clipPath>
<clipPath clipPathUnits="userSpaceOnUse" id="clipPath165_0_">
<rect x="0" y="0" width="822" height="203" />
</clipPath>
<clipPath clipPathUnits="userSpaceOnUse" id="clipPath167_0_">
<rect x="0" y="0" width="707" height="93" />
</clipPath>
<clipPath clipPathUnits="userSpaceOnUse" id="clipPath29_0_">
<rect x="0" y="0" width="853" height="174" />
</clipPath>
</defs>
<g stroke-linecap="butt" >
<path stroke="rgb(0,0,0)" fill="none" stroke-opacity="1.0"  stroke-width="1" d="M430 302 L430 187" />
<polygon stroke="rgb(0,0,0)" stroke-dasharray="none" points="430 302 427 296 433 296" fill="rgb(0,0,0)" stroke-width="1" stroke-opacity="1.0"  />
<path stroke-dasharray="none" d="M436.0 193.0 L424.0 193.0 M436.0 198.39999961853027 L424.0 198.39999961853027" fill="white" stroke-width="1" stroke-opacity="1.0" stroke="rgb(0,0,0)" />
</g>
<g stroke-linecap="butt" >
<path stroke="rgb(0,0,0)" fill="none" stroke-opacity="1.0"  stroke-width="1" d="M874 178 L966 178" />
<polygon stroke="rgb(0,0,0)" stroke-dasharray="none" points="874 178 880 175 880 181" fill="rgb(0,0,0)" stroke-width="1" stroke-opacity="1.0"  />
<path stroke-dasharray="none" d="M966.0 184.0 L954.0 178.0 L966.0 172.0 M953.4000005722046 184.0 L953.4000005722046 172.0" fill="white" stroke-width="1" stroke-opacity="1.0" stroke="rgb(0,0,0)" />
</g>
<g stroke-linecap="butt" >
<path stroke="rgb(0,0,0)" fill="none" stroke-opacity="1.0"  stroke-width="1" d="M1131 354 L1131 324" />
<polygon stroke="rgb(0,0,0)" stroke-dasharray="none" points="1131 354 1128 348 1134 348" fill="rgb(0,0,0)" stroke-width="1" stroke-opacity="1.0"  />
<path stroke-dasharray="none" d="M1137.0 324.0 L1131.0 336.0 L1125.0 324.0 M1137.0 336.5999994277954 L1125.0 336.5999994277954" fill="white" stroke-width="1" stroke-opacity="1.0" stroke="rgb(0,0,0)" />
</g>
<g stroke-linecap="butt" >
<path stroke="rgb(0,0,0)" fill="none" stroke-opacity="1.0"  stroke-width="1" d="M123 546 L123 505" />
<polygon stroke="rgb(0,0,0)" stroke-dasharray="none" points="123 546 120 540 126 540" fill="rgb(0,0,0)" stroke-width="1" stroke-opacity="1.0"  />
<path stroke-dasharray="none" d="M129.0 505.0 L123.0 517.0 L117.0 505.0 M129.0 517.5999994277954 L117.0 517.5999994277954" fill="white" stroke-width="1" stroke-opacity="1.0" stroke="rgb(0,0,0)" />
</g>
<g stroke-linecap="butt" >
<path stroke="rgb(0,0,0)" fill="none" stroke-opacity="1.0"  stroke-width="1" d="M113 221 L113 187" />
<polygon stroke="rgb(0,0,0)" stroke-dasharray="none" points="113 221 110 215 116 215" fill="rgb(0,0,0)" stroke-width="1" stroke-opacity="1.0"  />
<path stroke-dasharray="none" d="M119.0 187.0 L113.0 199.0 L107.0 187.0 M119.0 199.5999994277954 L107.0 199.5999994277954" fill="white" stroke-width="1" stroke-opacity="1.0" stroke="rgb(0,0,0)" />
</g>
<g stroke-linecap="butt" >
<path stroke="rgb(0,0,0)" fill="none" stroke-opacity="1.0"  stroke-width="1" d="M658 505 L658 551" />
<polygon stroke="rgb(0,0,0)" stroke-dasharray="none" points="658 505 661 511 655 511" fill="rgb(0,0,0)" stroke-width="1" stroke-opacity="1.0"  />
<path stroke-dasharray="none" d="M652.0 551.0 L658.0 539.0 L664.0 551.0 M652.0 538.4000005722046 L664.0 538.4000005722046" fill="white" stroke-width="1" stroke-opacity="1.0" stroke="rgb(0,0,0)" />
</g>
<g stroke-linecap="butt" >
<path stroke="rgb(0,0,0)" fill="none" stroke-opacity="1.0"  stroke-width="1" d="M965 85 L874 85" />
<polygon stroke="rgb(0,0,0)" stroke-dasharray="none" points="965 85 959 88 959 82" fill="rgb(0,0,0)" stroke-width="1" stroke-opacity="1.0"  />
<path stroke-dasharray="none" d="M874.0 79.0 L886.0 85.0 L874.0 91.0 M886.5999994277954 79.0 L886.5999994277954 91.0" fill="white" stroke-width="1" stroke-opacity="1.0" stroke="rgb(0,0,0)" />
</g>
<g  fill="rgb(255,255,180)" stroke="rgb(0,0,255)" fill-opacity="1.0" stroke-opacity="1.0" clip-path="url(#clipPath211_0_)" transform="translate(951,354)" >
<rect x="0" y="0" width="344" height="87" />
<text id="166B8742-D6D1FCE8CD4D" x="107" y="13" fill="rgb(0,0,255)" font-weight="bold"  fill-opacity="1.0" font-size="10" stroke="none">
CTCOLL_OTHER_ID_TYPE
</text>
<line x1="0" y1="17" x2="343" y2="17" fill="none" stroke="rgb(0,0,255)"/>
<text x="16" y="30" fill="rgb(255,0,0)" fill-opacity="1.0" font-size="10" stroke="none">
*
</text>
<text x="2" y="30" fill="rgb(0,0,255)" fill-opacity="1.0" font-size="10" stroke="none">
P
</text>
<text x="27" y="30" fill="rgb(0,0,0)" fill-opacity="1.0" font-size="10" stroke="none">
OTHER_ID_TYPE
</text>
<text x="192" y="30" fill="rgb(0,128,0)" fill-opacity="1.0" font-size="10" stroke="none">
VARCHAR2 (75 CHAR)
</text>
<text x="16" y="43" fill="rgb(255,0,0)" fill-opacity="1.0" font-size="10" stroke="none">

</text>
<text x="27" y="43" fill="rgb(0,0,0)" fill-opacity="1.0" font-size="10" stroke="none">
DESCRIPTION
</text>
<text x="192" y="43" fill="rgb(0,128,0)" fill-opacity="1.0" font-size="10" stroke="none">
VARCHAR2 (4000 CHAR)
</text>
<text x="16" y="56" fill="rgb(255,0,0)" fill-opacity="1.0" font-size="10" stroke="none">

</text>
<text x="27" y="56" fill="rgb(0,0,0)" fill-opacity="1.0" font-size="10" stroke="none">
BASE_URL
</text>
<text x="192" y="56" fill="rgb(0,128,0)" fill-opacity="1.0" font-size="10" stroke="none">
VARCHAR2 (4000 CHAR)
</text>
<text x="16" y="69" fill="rgb(255,0,0)" fill-opacity="1.0" font-size="10" stroke="none">
*
</text>
<text x="27" y="69" fill="rgb(0,0,0)" fill-opacity="1.0" font-size="10" stroke="none">
ENCUMBER_AS_FIELD_NUM
</text>
<text x="192" y="69" fill="rgb(0,128,0)" fill-opacity="1.0" font-size="10" stroke="none">
NUMBER
</text>
<text x="337" y="69" fill="rgb(64,64,64)" fill-opacity="1.0" font-size="10" stroke="none">
Mask from display if encumbrance mask original field number is applied.
</text>
</g>
<g  fill="rgb(204,255,204)" stroke="rgb(0,0,255)" fill-opacity="1.0" stroke-opacity="1.0" clip-path="url(#clipPath164_0_)" transform="translate(966,170)" >
<rect x="0" y="0" width="572" height="153" />
<text id="30D9DCCE-51286C3992D2" x="217" y="13" fill="rgb(0,0,255)" font-weight="bold"  fill-opacity="1.0" font-size="10" stroke="none">
COLL_OBJ_OTHER_ID_NUM
</text>
<line x1="0" y1="17" x2="571" y2="17" fill="none" stroke="rgb(0,0,255)"/>
<text x="16" y="30" fill="rgb(255,0,0)" fill-opacity="1.0" font-size="10" stroke="none">
*
</text>
<text x="2" y="30" fill="rgb(0,0,0)" fill-opacity="1.0" font-size="10" stroke="none">
F
</text>
<text x="27" y="30" fill="rgb(0,0,0)" fill-opacity="1.0" font-size="10" stroke="none">
COLLECTION_OBJECT_ID
</text>
<text x="200" y="30" fill="rgb(0,128,0)" fill-opacity="1.0" font-size="10" stroke="none">
NUMBER
</text>
<text x="339" y="30" fill="rgb(64,64,64)" fill-opacity="1.0" font-size="10" stroke="none">
The collection object to which this other number applies.
</text>
<text x="16" y="43" fill="rgb(255,0,0)" fill-opacity="1.0" font-size="10" stroke="none">
*
</text>
<text x="2" y="43" fill="rgb(0,0,0)" fill-opacity="1.0" font-size="10" stroke="none">
F
</text>
<text x="27" y="43" fill="rgb(0,0,0)" fill-opacity="1.0" font-size="10" stroke="none">
OTHER_ID_TYPE
</text>
<text x="200" y="43" fill="rgb(0,128,0)" fill-opacity="1.0" font-size="10" stroke="none">
VARCHAR2 (75 CHAR)
</text>
<text x="339" y="43" fill="rgb(64,64,64)" fill-opacity="1.0" font-size="10" stroke="none">
The type of the other number
</text>
<text x="16" y="56" fill="rgb(255,0,0)" fill-opacity="1.0" font-size="10" stroke="none">

</text>
<text x="27" y="56" fill="rgb(0,0,0)" fill-opacity="1.0" font-size="10" stroke="none">
OTHER_ID_PREFIX
</text>
<text x="200" y="56" fill="rgb(0,128,0)" fill-opacity="1.0" font-size="10" stroke="none">
VARCHAR2 (100 CHAR)
</text>
<text x="339" y="56" fill="rgb(64,64,64)" fill-opacity="1.0" font-size="10" stroke="none">
An alphanumeric prefix for the other number.  If a separator is needed between the prefix and the number, it must be included in the prefix.
</text>
<text x="16" y="69" fill="rgb(255,0,0)" fill-opacity="1.0" font-size="10" stroke="none">

</text>
<text x="27" y="69" fill="rgb(0,0,0)" fill-opacity="1.0" font-size="10" stroke="none">
OTHER_ID_NUMBER
</text>
<text x="200" y="69" fill="rgb(0,128,0)" fill-opacity="1.0" font-size="10" stroke="none">
NUMBER
</text>
<text x="339" y="69" fill="rgb(64,64,64)" fill-opacity="1.0" font-size="10" stroke="none">
The numeric portion of the other number.
</text>
<text x="16" y="82" fill="rgb(255,0,0)" fill-opacity="1.0" font-size="10" stroke="none">

</text>
<text x="27" y="82" fill="rgb(0,0,0)" fill-opacity="1.0" font-size="10" stroke="none">
OTHER_ID_SUFFIX
</text>
<text x="200" y="82" fill="rgb(0,128,0)" fill-opacity="1.0" font-size="10" stroke="none">
VARCHAR2 (60 CHAR)
</text>
<text x="339" y="82" fill="rgb(64,64,64)" fill-opacity="1.0" font-size="10" stroke="none">
An alphanumeric prefix for the other number.  If a separator is needed between the other umber and the suffix, it must be included in the suffix.
</text>
<text x="16" y="95" fill="rgb(255,0,0)" fill-opacity="1.0" font-size="10" stroke="none">

</text>
<text x="27" y="95" fill="rgb(0,0,0)" fill-opacity="1.0" font-size="10" stroke="none">
DISPLAY_VALUE
</text>
<text x="200" y="95" fill="rgb(0,128,0)" fill-opacity="1.0" font-size="10" stroke="none">
VARCHAR2 (255 CHAR)
</text>
<text x="339" y="95" fill="rgb(64,64,64)" fill-opacity="1.0" font-size="10" stroke="none">
The value of the other number, assembled automatically by concatenationg other-id_prefix, other_id_number, and other_id_suffix.   No additional characters are included in the concatenation.
</text>
<text x="16" y="108" fill="rgb(255,0,0)" fill-opacity="1.0" font-size="10" stroke="none">
*
</text>
<text x="2" y="108" fill="rgb(0,0,255)" fill-opacity="1.0" font-size="10" stroke="none">
P
</text>
<text x="27" y="108" fill="rgb(0,0,0)" fill-opacity="1.0" font-size="10" stroke="none">
COLL_OBJ_OTHER_ID_NUM_ID
</text>
<text x="200" y="108" fill="rgb(0,128,0)" fill-opacity="1.0" font-size="10" stroke="none">
NUMBER (*,0)
</text>
<text x="339" y="108" fill="rgb(64,64,64)" fill-opacity="1.0" font-size="10" stroke="none">
Surrogate Numeric Primary Key
</text>
<line x1="0" y1="114" x2="571" y2="114" fill="none" stroke="rgb(64,64,64)"/>
<text x="5" y="127" fill="rgb(64,64,64)" fill-opacity="1.0" font-size="10" stroke="none">
Other numbers applied to collection objects that identify them in various ways, not always uniquely, or relate them 
</text>
<text x="5" y="140" fill="rgb(64,64,64)" fill-opacity="1.0" font-size="10" stroke="none">
to other data.
</text>
</g>
<g  fill="rgb(255,255,180)" stroke="rgb(0,0,255)" fill-opacity="1.0" stroke-opacity="1.0" clip-path="url(#clipPath169_0_)" transform="translate(965,13)" >
<rect x="0" y="0" width="319" height="143" />
<text id="376D34F3-806C7907708E" x="127" y="13" fill="rgb(0,0,255)" font-weight="bold"  fill-opacity="1.0" font-size="10" stroke="none">
COLLECTION
</text>
<polygon points="312,2 308,10 316,10" stroke-dasharray="none" stroke="rgb(0,0,255)" fill="rgb(0,0,255)" stroke-width="1" />
<line x1="0" y1="17" x2="318" y2="17" fill="none" stroke="rgb(0,0,255)"/>
<text x="16" y="30" fill="rgb(255,0,0)" fill-opacity="1.0" font-size="10" stroke="none">
*
</text>
<text x="2" y="30" fill="rgb(0,0,255)" fill-opacity="1.0" font-size="10" stroke="none">
U
</text>
<text x="27" y="30" fill="rgb(0,0,0)" fill-opacity="1.0" font-size="10" stroke="none">
COLLECTION_CDE
</text>
<text x="169" y="30" fill="rgb(0,128,0)" fill-opacity="1.0" font-size="10" stroke="none">
VARCHAR2 (10 BYTE)
</text>
<text x="16" y="43" fill="rgb(255,0,0)" fill-opacity="1.0" font-size="10" stroke="none">

</text>
<text x="27" y="43" fill="rgb(0,0,0)" fill-opacity="1.0" font-size="10" stroke="none">
DESCR
</text>
<text x="169" y="43" fill="rgb(0,128,0)" fill-opacity="1.0" font-size="10" stroke="none">
VARCHAR2 (255 CHAR)
</text>
<text x="16" y="56" fill="rgb(255,0,0)" fill-opacity="1.0" font-size="10" stroke="none">
*
</text>
<text x="27" y="56" fill="rgb(0,0,0)" fill-opacity="1.0" font-size="10" stroke="none">
COLLECTION
</text>
<text x="169" y="56" fill="rgb(0,128,0)" fill-opacity="1.0" font-size="10" stroke="none">
VARCHAR2 (50 CHAR)
</text>
<text x="16" y="69" fill="rgb(255,0,0)" fill-opacity="1.0" font-size="10" stroke="none">
*
</text>
<text x="2" y="69" fill="rgb(0,0,255)" fill-opacity="1.0" font-size="10" stroke="none">
P
</text>
<text x="27" y="69" fill="rgb(0,0,0)" fill-opacity="1.0" font-size="10" stroke="none">
COLLECTION_ID
</text>
<text x="169" y="69" fill="rgb(0,128,0)" fill-opacity="1.0" font-size="10" stroke="none">
NUMBER
</text>
<text x="16" y="82" fill="rgb(255,0,0)" fill-opacity="1.0" font-size="10" stroke="none">

</text>
<text x="27" y="82" fill="rgb(0,0,0)" fill-opacity="1.0" font-size="10" stroke="none">
WEB_LINK
</text>
<text x="169" y="82" fill="rgb(0,128,0)" fill-opacity="1.0" font-size="10" stroke="none">
VARCHAR2 (4000 CHAR)
</text>
<text x="16" y="95" fill="rgb(255,0,0)" fill-opacity="1.0" font-size="10" stroke="none">

</text>
<text x="27" y="95" fill="rgb(0,0,0)" fill-opacity="1.0" font-size="10" stroke="none">
WEB_LINK_TEXT
</text>
<text x="169" y="95" fill="rgb(0,128,0)" fill-opacity="1.0" font-size="10" stroke="none">
VARCHAR2 (25 CHAR)
</text>
<text x="16" y="108" fill="rgb(255,0,0)" fill-opacity="1.0" font-size="10" stroke="none">

</text>
<text x="27" y="108" fill="rgb(0,0,0)" fill-opacity="1.0" font-size="10" stroke="none">
LOAN_POLICY_URL
</text>
<text x="169" y="108" fill="rgb(0,128,0)" fill-opacity="1.0" font-size="10" stroke="none">
VARCHAR2 (255 CHAR)
</text>
<text x="16" y="121" fill="rgb(255,0,0)" fill-opacity="1.0" font-size="10" stroke="none">

</text>
<text x="27" y="121" fill="rgb(0,0,0)" fill-opacity="1.0" font-size="10" stroke="none">
GUID_PREFIX
</text>
<text x="169" y="121" fill="rgb(0,128,0)" fill-opacity="1.0" font-size="10" stroke="none">
VARCHAR2 (20 CHAR)
</text>
</g>
<g  fill="rgb(255,255,180)" stroke="rgb(0,0,255)" fill-opacity="1.0" stroke-opacity="1.0" clip-path="url(#clipPath210_0_)" transform="translate(16,546)" >
<rect x="0" y="0" width="213" height="42" />
<text id="44764069-E007C438A2AF" x="49" y="13" fill="rgb(0,0,255)" font-weight="bold"  fill-opacity="1.0" font-size="10" stroke="none">
CTCOLL_OBJECT_TYPE
</text>
<line x1="0" y1="17" x2="212" y2="17" fill="none" stroke="rgb(0,0,255)"/>
<text x="16" y="30" fill="rgb(255,0,0)" fill-opacity="1.0" font-size="10" stroke="none">
*
</text>
<text x="2" y="30" fill="rgb(0,0,255)" fill-opacity="1.0" font-size="10" stroke="none">
P
</text>
<text x="27" y="30" fill="rgb(0,0,0)" fill-opacity="1.0" font-size="10" stroke="none">
COLL_OBJECT_TYPE
</text>
<text x="149" y="30" fill="rgb(0,128,0)" fill-opacity="1.0" font-size="10" stroke="none">
CHAR (2 CHAR)
</text>
</g>
<g  fill="rgb(255,255,180)" stroke="rgb(0,0,255)" fill-opacity="1.0" stroke-opacity="1.0" clip-path="url(#clipPath203_0_)" transform="translate(14,221)" >
<rect x="0" y="0" width="191" height="53" />
<text id="D60E47E4-A733651E899D" x="24" y="13" fill="rgb(0,0,255)" font-weight="bold"  fill-opacity="1.0" font-size="10" stroke="none">
CTCATALOGED_ITEM_TYPE
</text>
<line x1="0" y1="17" x2="190" y2="17" fill="none" stroke="rgb(0,0,255)"/>
<text x="16" y="30" fill="rgb(255,0,0)" fill-opacity="1.0" font-size="10" stroke="none">
*
</text>
<text x="2" y="30" fill="rgb(0,0,255)" fill-opacity="1.0" font-size="10" stroke="none">
P
</text>
<text x="27" y="30" fill="rgb(0,0,0)" fill-opacity="1.0" font-size="10" stroke="none">
CATALOGED_ITEM_TYPE
</text>
<text x="171" y="30" fill="rgb(0,128,0)" fill-opacity="1.0" font-size="10" stroke="none">
CHAR (2 CHAR)
</text>
<text x="16" y="43" fill="rgb(255,0,0)" fill-opacity="1.0" font-size="10" stroke="none">

</text>
<text x="27" y="43" fill="rgb(0,0,0)" fill-opacity="1.0" font-size="10" stroke="none">
DESCRIPTION
</text>
<text x="171" y="43" fill="rgb(0,128,0)" fill-opacity="1.0" font-size="10" stroke="none">
VARCHAR2 (4000 CHAR)
</text>
</g>
<g  fill="rgb(204,255,204)" stroke="rgb(0,0,255)" fill-opacity="1.0" stroke-opacity="1.0" clip-path="url(#clipPath165_0_)" transform="translate(17,302)" >
<rect x="0" y="0" width="821" height="202" />
<text id="E2697263-C0965973A0A7" x="376" y="13" fill="rgb(0,0,255)" font-weight="bold"  fill-opacity="1.0" font-size="10" stroke="none">
COLL_OBJECT
</text>
<line x1="0" y1="17" x2="820" y2="17" fill="none" stroke="rgb(0,0,255)"/>
<text x="16" y="30" fill="rgb(255,0,0)" fill-opacity="1.0" font-size="10" stroke="none">
*
</text>
<text x="2" y="30" fill="rgb(0,0,255)" fill-opacity="1.0" font-size="10" stroke="none">
P
</text>
<text x="27" y="30" fill="rgb(0,0,0)" fill-opacity="1.0" font-size="10" stroke="none">
COLLECTION_OBJECT_ID
</text>
<text x="204" y="30" fill="rgb(0,128,0)" fill-opacity="1.0" font-size="10" stroke="none">
NUMBER
</text>
<text x="345" y="30" fill="rgb(64,64,64)" fill-opacity="1.0" font-size="10" stroke="none">
surrogate numeric primary key
</text>
<text x="16" y="43" fill="rgb(255,0,0)" fill-opacity="1.0" font-size="10" stroke="none">
*
</text>
<text x="2" y="43" fill="rgb(0,0,0)" fill-opacity="1.0" font-size="10" stroke="none">
F
</text>
<text x="27" y="43" fill="rgb(0,0,0)" fill-opacity="1.0" font-size="10" stroke="none">
COLL_OBJECT_TYPE
</text>
<text x="204" y="43" fill="rgb(0,128,0)" fill-opacity="1.0" font-size="10" stroke="none">
CHAR (2 CHAR)
</text>
<text x="345" y="43" fill="rgb(64,64,64)" fill-opacity="1.0" font-size="10" stroke="none">
type of collection object record, for cataloged item or for part thereof.  Domain: SP, CI, SS
</text>
<text x="16" y="56" fill="rgb(255,0,0)" fill-opacity="1.0" font-size="10" stroke="none">
*
</text>
<text x="2" y="56" fill="rgb(0,0,0)" fill-opacity="1.0" font-size="10" stroke="none">
F
</text>
<text x="27" y="56" fill="rgb(0,0,0)" fill-opacity="1.0" font-size="10" stroke="none">
ENTERED_PERSON_ID
</text>
<text x="204" y="56" fill="rgb(0,128,0)" fill-opacity="1.0" font-size="10" stroke="none">
NUMBER (15)
</text>
<text x="345" y="56" fill="rgb(64,64,64)" fill-opacity="1.0" font-size="10" stroke="none">
The agent who created the collection object record.
</text>
<text x="16" y="69" fill="rgb(255,0,0)" fill-opacity="1.0" font-size="10" stroke="none">
*
</text>
<text x="27" y="69" fill="rgb(0,0,0)" fill-opacity="1.0" font-size="10" stroke="none">
COLL_OBJECT_ENTERED_DATE
</text>
<text x="204" y="69" fill="rgb(0,128,0)" fill-opacity="1.0" font-size="10" stroke="none">
DATE
</text>
<text x="345" y="69" fill="rgb(64,64,64)" fill-opacity="1.0" font-size="10" stroke="none">
The date on which the collection object record was created.
</text>
<text x="16" y="82" fill="rgb(255,0,0)" fill-opacity="1.0" font-size="10" stroke="none">

</text>
<text x="2" y="82" fill="rgb(0,0,0)" fill-opacity="1.0" font-size="10" stroke="none">
F
</text>
<text x="27" y="82" fill="rgb(0,0,0)" fill-opacity="1.0" font-size="10" stroke="none">
LAST_EDITED_PERSON_ID
</text>
<text x="204" y="82" fill="rgb(0,128,0)" fill-opacity="1.0" font-size="10" stroke="none">
NUMBER (15)
</text>
<text x="345" y="82" fill="rgb(64,64,64)" fill-opacity="1.0" font-size="10" stroke="none">
The agent who most recently edited the collection object record.
</text>
<text x="16" y="95" fill="rgb(255,0,0)" fill-opacity="1.0" font-size="10" stroke="none">

</text>
<text x="27" y="95" fill="rgb(0,0,0)" fill-opacity="1.0" font-size="10" stroke="none">
LAST_EDIT_DATE
</text>
<text x="204" y="95" fill="rgb(0,128,0)" fill-opacity="1.0" font-size="10" stroke="none">
DATE
</text>
<text x="345" y="95" fill="rgb(64,64,64)" fill-opacity="1.0" font-size="10" stroke="none">
The date on which the collection object record was most recently edited
</text>
<text x="16" y="108" fill="rgb(255,0,0)" fill-opacity="1.0" font-size="10" stroke="none">

</text>
<text x="2" y="108" fill="rgb(0,0,0)" fill-opacity="1.0" font-size="10" stroke="none">
F
</text>
<text x="27" y="108" fill="rgb(0,0,0)" fill-opacity="1.0" font-size="10" stroke="none">
COLL_OBJ_DISPOSITION
</text>
<text x="204" y="108" fill="rgb(0,128,0)" fill-opacity="1.0" font-size="10" stroke="none">
VARCHAR2 (40 CHAR)
</text>
<text x="345" y="108" fill="rgb(64,64,64)" fill-opacity="1.0" font-size="10" stroke="none">
The current disposition of the collection object.
</text>
<text x="16" y="121" fill="rgb(255,0,0)" fill-opacity="1.0" font-size="10" stroke="none">
*
</text>
<text x="27" y="121" fill="rgb(0,0,0)" fill-opacity="1.0" font-size="10" stroke="none">
LOT_COUNT
</text>
<text x="204" y="121" fill="rgb(0,128,0)" fill-opacity="1.0" font-size="10" stroke="none">
NUMBER
</text>
<text x="345" y="121" fill="rgb(64,64,64)" fill-opacity="1.0" font-size="10" stroke="none">
The number of items making up the collection object.
</text>
<text x="16" y="134" fill="rgb(255,0,0)" fill-opacity="1.0" font-size="10" stroke="none">

</text>
<text x="27" y="134" fill="rgb(0,0,0)" fill-opacity="1.0" font-size="10" stroke="none">
CONDITION
</text>
<text x="204" y="134" fill="rgb(0,128,0)" fill-opacity="1.0" font-size="10" stroke="none">
VARCHAR2 (255 CHAR)
</text>
<text x="345" y="134" fill="rgb(64,64,64)" fill-opacity="1.0" font-size="10" stroke="none">
The current condition of the collection object
</text>
<text x="16" y="147" fill="rgb(255,0,0)" fill-opacity="1.0" font-size="10" stroke="none">

</text>
<text x="27" y="147" fill="rgb(0,0,0)" fill-opacity="1.0" font-size="10" stroke="none">
FLAGS
</text>
<text x="204" y="147" fill="rgb(0,128,0)" fill-opacity="1.0" font-size="10" stroke="none">
VARCHAR2 (20 CHAR)
</text>
<text x="16" y="160" fill="rgb(255,0,0)" fill-opacity="1.0" font-size="10" stroke="none">

</text>
<text x="27" y="160" fill="rgb(0,0,0)" fill-opacity="1.0" font-size="10" stroke="none">
LOT_COUNT_MODIFIER
</text>
<text x="204" y="160" fill="rgb(0,128,0)" fill-opacity="1.0" font-size="10" stroke="none">
VARCHAR2 (5 CHAR)
</text>
<text x="345" y="160" fill="rgb(64,64,64)" fill-opacity="1.0" font-size="10" stroke="none">
A textual modifier for the lot count indicating range or uncertainty in the count.
</text>
<text x="16" y="173" fill="rgb(255,0,0)" fill-opacity="1.0" font-size="10" stroke="none">

</text>
<text x="27" y="173" fill="rgb(0,0,0)" fill-opacity="1.0" font-size="10" stroke="none">
FIX_ENTERED_DATE
</text>
<text x="204" y="173" fill="rgb(0,128,0)" fill-opacity="1.0" font-size="10" stroke="none">
DATE
</text>
<text x="16" y="186" fill="rgb(255,0,0)" fill-opacity="1.0" font-size="10" stroke="none">

</text>
<text x="27" y="186" fill="rgb(0,0,0)" fill-opacity="1.0" font-size="10" stroke="none">
CONDITION_REMARKS
</text>
<text x="204" y="186" fill="rgb(0,128,0)" fill-opacity="1.0" font-size="10" stroke="none">
VARCHAR2 (4000 BYTE)
</text>
<text x="345" y="186" fill="rgb(64,64,64)" fill-opacity="1.0" font-size="10" stroke="none">
Remarks concerning the current condition of the collection object.
</text>
</g>
<g  fill="rgb(204,255,204)" stroke="rgb(0,0,255)" fill-opacity="1.0" stroke-opacity="1.0" clip-path="url(#clipPath167_0_)" transform="translate(478,551)" >
<rect x="0" y="0" width="706" height="92" />
<text id="E9171839-DE5241541220" x="292" y="13" fill="rgb(0,0,255)" font-weight="bold"  fill-opacity="1.0" font-size="10" stroke="none">
COLL_OBJECT_REMARK
</text>
<line x1="0" y1="17" x2="705" y2="17" fill="none" stroke="rgb(0,0,255)"/>
<text x="16" y="30" fill="rgb(255,0,0)" fill-opacity="1.0" font-size="10" stroke="none">
*
</text>
<text x="2" y="30" fill="rgb(0,0,0)" fill-opacity="1.0" font-size="10" stroke="none">
F
</text>
<text x="27" y="30" fill="rgb(0,0,0)" fill-opacity="1.0" font-size="10" stroke="none">
COLLECTION_OBJECT_ID
</text>
<text x="173" y="30" fill="rgb(0,128,0)" fill-opacity="1.0" font-size="10" stroke="none">
NUMBER
</text>
<text x="318" y="30" fill="rgb(64,64,64)" fill-opacity="1.0" font-size="10" stroke="none">
The cataloged item to which the remarks apply
</text>
<text x="16" y="43" fill="rgb(255,0,0)" fill-opacity="1.0" font-size="10" stroke="none">

</text>
<text x="27" y="43" fill="rgb(0,0,0)" fill-opacity="1.0" font-size="10" stroke="none">
DISPOSITION_REMARKS
</text>
<text x="173" y="43" fill="rgb(0,128,0)" fill-opacity="1.0" font-size="10" stroke="none">
VARCHAR2 (4000 CHAR)
</text>
<text x="318" y="43" fill="rgb(64,64,64)" fill-opacity="1.0" font-size="10" stroke="none">
Comments or notes regarding the disposition of the collection object.
</text>
<text x="16" y="56" fill="rgb(255,0,0)" fill-opacity="1.0" font-size="10" stroke="none">

</text>
<text x="27" y="56" fill="rgb(0,0,0)" fill-opacity="1.0" font-size="10" stroke="none">
COLL_OBJECT_REMARKS
</text>
<text x="173" y="56" fill="rgb(0,128,0)" fill-opacity="1.0" font-size="10" stroke="none">
VARCHAR2 (4000 CHAR)
</text>
<text x="318" y="56" fill="rgb(64,64,64)" fill-opacity="1.0" font-size="10" stroke="none">
Comments or notes regarding the specimen.
</text>
<text x="16" y="69" fill="rgb(255,0,0)" fill-opacity="1.0" font-size="10" stroke="none">

</text>
<text x="27" y="69" fill="rgb(0,0,0)" fill-opacity="1.0" font-size="10" stroke="none">
HABITAT
</text>
<text x="173" y="69" fill="rgb(0,128,0)" fill-opacity="1.0" font-size="10" stroke="none">
VARCHAR2 (4000 CHAR)
</text>
<text x="318" y="69" fill="rgb(64,64,64)" fill-opacity="1.0" font-size="10" stroke="none">
Microhabitat information related to the gathering of the collection object.  See also collecting_event.habitat_desc for habitat information.
</text>
<text x="16" y="82" fill="rgb(255,0,0)" fill-opacity="1.0" font-size="10" stroke="none">

</text>
<text x="27" y="82" fill="rgb(0,0,0)" fill-opacity="1.0" font-size="10" stroke="none">
ASSOCIATED_SPECIES
</text>
<text x="173" y="82" fill="rgb(0,128,0)" fill-opacity="1.0" font-size="10" stroke="none">
VARCHAR2 (4000 CHAR)
</text>
<text x="318" y="82" fill="rgb(64,64,64)" fill-opacity="1.0" font-size="10" stroke="none">
Species found in association with the collection object in its gathering.
</text>
</g>
<g  fill="rgb(204,255,204)" stroke="rgb(0,0,255)" fill-opacity="1.0" stroke-opacity="1.0" clip-path="url(#clipPath29_0_)" transform="translate(21,13)" >
<rect x="0" y="0" width="852" height="173" />
<text id="F66B8097-064CF835A3F5" x="377" y="13" fill="rgb(0,0,255)" font-weight="bold"  fill-opacity="1.0" font-size="10" stroke="none">
CATALOGED_ITEM
</text>
<line x1="0" y1="17" x2="851" y2="17" fill="none" stroke="rgb(0,0,255)"/>
<text x="16" y="30" fill="rgb(255,0,0)" fill-opacity="1.0" font-size="10" stroke="none">
*
</text>
<text x="2" y="30" fill="rgb(0,0,255)" fill-opacity="1.0" font-size="10" stroke="none">
PF
</text>
<text x="27" y="30" fill="rgb(0,0,0)" fill-opacity="1.0" font-size="10" stroke="none">
COLLECTION_OBJECT_ID
</text>
<text x="173" y="30" fill="rgb(0,128,0)" fill-opacity="1.0" font-size="10" stroke="none">
NUMBER
</text>
<text x="312" y="30" fill="rgb(64,64,64)" fill-opacity="1.0" font-size="10" stroke="none">
cataloged items are a subtype of collection objects.
</text>
<text x="16" y="43" fill="rgb(255,0,0)" fill-opacity="1.0" font-size="10" stroke="none">
*
</text>
<text x="27" y="43" fill="rgb(0,0,0)" fill-opacity="1.0" font-size="10" stroke="none">
CAT_NUM
</text>
<text x="173" y="43" fill="rgb(0,128,0)" fill-opacity="1.0" font-size="10" stroke="none">
VARCHAR2 (255 CHAR)
</text>
<text x="312" y="43" fill="rgb(64,64,64)" fill-opacity="1.0" font-size="10" stroke="none">
The catalog number of the cataloged item, including any prefix or suffix.  Automatically assembled from cat_num_prefix, cat_num_integer, and cat_num_suffix.
</text>
<text x="16" y="56" fill="rgb(255,0,0)" fill-opacity="1.0" font-size="10" stroke="none">
*
</text>
<text x="2" y="56" fill="rgb(0,0,0)" fill-opacity="1.0" font-size="10" stroke="none">
F
</text>
<text x="27" y="56" fill="rgb(0,0,0)" fill-opacity="1.0" font-size="10" stroke="none">
ACCN_ID
</text>
<text x="173" y="56" fill="rgb(0,128,0)" fill-opacity="1.0" font-size="10" stroke="none">
NUMBER
</text>
<text x="312" y="56" fill="rgb(64,64,64)" fill-opacity="1.0" font-size="10" stroke="none">
The accession under which this cataloged item was brought into the museum.
</text>
<text x="16" y="69" fill="rgb(255,0,0)" fill-opacity="1.0" font-size="10" stroke="none">
*
</text>
<text x="2" y="69" fill="rgb(0,0,0)" fill-opacity="1.0" font-size="10" stroke="none">
F
</text>
<text x="27" y="69" fill="rgb(0,0,0)" fill-opacity="1.0" font-size="10" stroke="none">
COLLECTING_EVENT_ID
</text>
<text x="173" y="69" fill="rgb(0,128,0)" fill-opacity="1.0" font-size="10" stroke="none">
NUMBER
</text>
<text x="312" y="69" fill="rgb(64,64,64)" fill-opacity="1.0" font-size="10" stroke="none">
The collecting event in which this cataloged item was collected.
</text>
<text x="16" y="82" fill="rgb(255,0,0)" fill-opacity="1.0" font-size="10" stroke="none">
*
</text>
<text x="27" y="82" fill="rgb(0,0,0)" fill-opacity="1.0" font-size="10" stroke="none">
COLLECTION_CDE
</text>
<text x="173" y="82" fill="rgb(0,128,0)" fill-opacity="1.0" font-size="10" stroke="none">
VARCHAR2 (10 BYTE)
</text>
<text x="312" y="82" fill="rgb(64,64,64)" fill-opacity="1.0" font-size="10" stroke="none">
The collection code for the collection within which this cataloged item is held.  Autopopulated convenience field with value obtained from collection.
</text>
<text x="16" y="95" fill="rgb(255,0,0)" fill-opacity="1.0" font-size="10" stroke="none">
*
</text>
<text x="2" y="95" fill="rgb(0,0,0)" fill-opacity="1.0" font-size="10" stroke="none">
F
</text>
<text x="27" y="95" fill="rgb(0,0,0)" fill-opacity="1.0" font-size="10" stroke="none">
CATALOGED_ITEM_TYPE
</text>
<text x="173" y="95" fill="rgb(0,128,0)" fill-opacity="1.0" font-size="10" stroke="none">
CHAR (2 BYTE)
</text>
<text x="16" y="108" fill="rgb(255,0,0)" fill-opacity="1.0" font-size="10" stroke="none">
*
</text>
<text x="2" y="108" fill="rgb(0,0,0)" fill-opacity="1.0" font-size="10" stroke="none">
F
</text>
<text x="27" y="108" fill="rgb(0,0,0)" fill-opacity="1.0" font-size="10" stroke="none">
COLLECTION_ID
</text>
<text x="173" y="108" fill="rgb(0,128,0)" fill-opacity="1.0" font-size="10" stroke="none">
NUMBER
</text>
<text x="312" y="108" fill="rgb(64,64,64)" fill-opacity="1.0" font-size="10" stroke="none">
Foreign key to the collection within which this cataloged item is held.  Enforces virtual private database limitiations on collection.
</text>
<text x="16" y="121" fill="rgb(255,0,0)" fill-opacity="1.0" font-size="10" stroke="none">

</text>
<text x="2" y="121" fill="rgb(0,0,0)" fill-opacity="1.0" font-size="10" stroke="none">
F
</text>
<text x="27" y="121" fill="rgb(0,0,0)" fill-opacity="1.0" font-size="10" stroke="none">
CAT_NUM_PREFIX
</text>
<text x="173" y="121" fill="rgb(0,128,0)" fill-opacity="1.0" font-size="10" stroke="none">
VARCHAR2 (60 CHAR)
</text>
<text x="312" y="121" fill="rgb(64,64,64)" fill-opacity="1.0" font-size="10" stroke="none">
The prefix portion of the catalog number, if any.  Including any separator.  Example &quot;R-&quot;
</text>
<text x="16" y="134" fill="rgb(255,0,0)" fill-opacity="1.0" font-size="10" stroke="none">
*
</text>
<text x="27" y="134" fill="rgb(0,0,0)" fill-opacity="1.0" font-size="10" stroke="none">
CAT_NUM_INTEGER
</text>
<text x="173" y="134" fill="rgb(0,128,0)" fill-opacity="1.0" font-size="10" stroke="none">
NUMBER
</text>
<text x="312" y="134" fill="rgb(64,64,64)" fill-opacity="1.0" font-size="10" stroke="none">
The numeric portion of the catalog number.
</text>
<text x="16" y="147" fill="rgb(255,0,0)" fill-opacity="1.0" font-size="10" stroke="none">

</text>
<text x="27" y="147" fill="rgb(0,0,0)" fill-opacity="1.0" font-size="10" stroke="none">
CAT_NUM_SUFFIX
</text>
<text x="173" y="147" fill="rgb(0,128,0)" fill-opacity="1.0" font-size="10" stroke="none">
VARCHAR2 (60 CHAR)
</text>
<text x="312" y="147" fill="rgb(64,64,64)" fill-opacity="1.0" font-size="10" stroke="none">
The suffix portion of the catalog number, if any. Including any separator.  Example &quot;-a&quot;
</text>
</g>
<g  fill="rgb(225,225,225)" stroke="rgb(0,0,0)" fill-opacity="1.0" stroke-opacity="1.0" clip-path="url(#clipPath706_0_)" transform="translate(1151,606)" >
<path stroke="rgb(0,0,0)" stroke-width="1" d="M138 0 L157 3 L157 20 L0 20 L0 0 L138 0 L138 3 L157 3" />
<text x="2" y="13" fill="rgb(0,0,0)" fill-opacity="1.0" font-size="10" stroke="none">
&quot;Habitat&quot; is microhabitat.
</text>
</g>
<g  fill="rgb(225,225,225)" stroke="rgb(0,0,0)" fill-opacity="1.0" stroke-opacity="1.0" clip-path="url(#clipPath711_0_)" transform="translate(180,240)" >
<path stroke="rgb(0,0,0)" stroke-width="1" d="M118 0 L134 8 L134 50 L0 50 L0 0 L118 0 L118 8 L134 8" />
<text x="2" y="13" fill="rgb(0,0,0)" fill-opacity="1.0" font-size="10" stroke="none">
BI:Preserved Specimen
</text>
<text x="2" y="26" fill="rgb(0,0,0)" fill-opacity="1.0" font-size="10" stroke="none">
FS:Fossil Specimen
</text>
<text x="2" y="39" fill="rgb(0,0,0)" fill-opacity="1.0" font-size="10" stroke="none">
HO:Human Observation
</text>
</g>
<g  fill="rgb(225,225,225)" stroke="rgb(0,0,0)" fill-opacity="1.0" stroke-opacity="1.0" clip-path="url(#clipPath712_0_)" transform="translate(159,566)" >
<path stroke="rgb(0,0,0)" stroke-width="1" d="M159 0 L181 9 L181 54 L0 54 L0 0 L159 0 L159 9 L181 9" />
<text x="2" y="13" fill="rgb(0,0,0)" fill-opacity="1.0" font-size="10" stroke="none">
CI: Cataloged Item
</text>
<text x="2" y="26" fill="rgb(0,0,0)" fill-opacity="1.0" font-size="10" stroke="none">
SP: Specimen Part
</text>
<text x="2" y="39" fill="rgb(0,0,0)" fill-opacity="1.0" font-size="10" stroke="none">
SS: Subsampled Specimen Part
</text>
</g>

</svg>